<svg width="358" height="140" viewBox="0 0 358 140" fill="none" xmlns="http://www.w3.org/2000/svg">
<path d="M326.5 27.5438L304 2.54384H315.5L330 19.5438H332L345.5 2.54384H356.5L335.5 27.5438V44.0438H326.5V27.5438Z" fill="black"/>
<path d="M326.5 27.5438L304 2.54384H315.5L330 19.5438H332L345.5 2.54384H356.5L335.5 27.5438V44.0438H326.5V27.5438Z" stroke="black"/>
<path d="M326.5 27.5438L304 2.54384H315.5L330 19.5438H332L345.5 2.54384H356.5L335.5 27.5438V44.0438H326.5V27.5438Z" stroke="black" stroke-opacity="0.2"/>
<path d="M266 10.5438V44.0438H275V10.5438H293V2.54384H248V10.5438H266Z" fill="black"/>
<path d="M266 10.5438V44.0438H275V10.5438H293V2.54384H248V10.5438H266Z" stroke="black"/>
<path d="M266 10.5438V44.0438H275V10.5438H293V2.54384H248V10.5438H266Z" stroke="black" stroke-opacity="0.2"/>
<path d="M232 2.04384H197.5C197.5 2.04384 192.411 4.19065 190.5 6.54384C188.589 8.89702 187.639 11.1444 187.5 14.0438C187.355 17.0716 188.223 20.2667 190.5 22.5438C193 25.0438 197.5 26.5438 197.5 26.5438H224C224 26.5438 226.413 29.0354 226.5 31.0438C226.595 33.2249 224 36.0438 224 36.0438H191.5C191.5 36.0438 189.5 38.2974 189.5 40.0438C189.5 41.7903 191.5 44.0438 191.5 44.0438H225.5C225.5 44.0438 229.796 42.7074 232.5 39.5438C234.432 37.2827 235.05 33.599 235 31.0438C234.952 28.5971 233.874 25.5899 232 23.5438C229.296 20.5925 225.5 19.0438 225.5 19.0438H199.5C199.5 19.0438 197.5 16.3066 197.5 14.2938C197.5 12.2811 199.5 10.0438 199.5 10.0438H232C232 10.0438 233.5 7.53091 233.5 6.04384C233.5 4.55677 232 2.04384 232 2.04384Z" fill="black"/>
<path d="M232 2.04384H197.5C197.5 2.04384 192.411 4.19065 190.5 6.54384C188.589 8.89702 187.639 11.1444 187.5 14.0438C187.355 17.0716 188.223 20.2667 190.5 22.5438C193 25.0438 197.5 26.5438 197.5 26.5438H224C224 26.5438 226.413 29.0354 226.5 31.0438C226.595 33.2249 224 36.0438 224 36.0438H191.5C191.5 36.0438 189.5 38.2974 189.5 40.0438C189.5 41.7903 191.5 44.0438 191.5 44.0438H225.5C225.5 44.0438 229.796 42.7074 232.5 39.5438C234.432 37.2827 235.05 33.599 235 31.0438C234.952 28.5971 233.874 25.5899 232 23.5438C229.296 20.5925 225.5 19.0438 225.5 19.0438H199.5C199.5 19.0438 197.5 16.3066 197.5 14.2938C197.5 12.2811 199.5 10.0438 199.5 10.0438H232C232 10.0438 233.5 7.53091 233.5 6.04384C233.5 4.55677 232 2.04384 232 2.04384Z" stroke="black"/>
<path d="M232 2.04384H197.5C197.5 2.04384 192.411 4.19065 190.5 6.54384C188.589 8.89702 187.639 11.1444 187.5 14.0438C187.355 17.0716 188.223 20.2667 190.5 22.5438C193 25.0438 197.5 26.5438 197.5 26.5438H224C224 26.5438 226.413 29.0354 226.5 31.0438C226.595 33.2249 224 36.0438 224 36.0438H191.5C191.5 36.0438 189.5 38.2974 189.5 40.0438C189.5 41.7903 191.5 44.0438 191.5 44.0438H225.5C225.5 44.0438 229.796 42.7074 232.5 39.5438C234.432 37.2827 235.05 33.599 235 31.0438C234.952 28.5971 233.874 25.5899 232 23.5438C229.296 20.5925 225.5 19.0438 225.5 19.0438H199.5C199.5 19.0438 197.5 16.3066 197.5 14.2938C197.5 12.2811 199.5 10.0438 199.5 10.0438H232C232 10.0438 233.5 7.53091 233.5 6.04384C233.5 4.55677 232 2.04384 232 2.04384Z" stroke="black" stroke-opacity="0.2"/>
<path d="M137 44.0438H162.5L149.5 20.0438L137 44.0438Z" fill="#F30000"/>
<path d="M144 3.54384C134.762 19.5438 120 44.0438 120 44.0438H131.5L149 10.0438H151L168 44.0438H179.5C179.5 44.0438 164.372 18.0439 156 3.54384C153.657 -0.514615 146.343 -0.514608 144 3.54384Z" fill="black"/>
<path d="M144 3.54384C134.762 19.5438 120 44.0438 120 44.0438H131.5L149 10.0438H151L168 44.0438H179.5C179.5 44.0438 164.372 18.0439 156 3.54384C153.657 -0.514615 146.343 -0.514608 144 3.54384Z" stroke="black"/>
<path d="M144 3.54384C134.762 19.5438 120 44.0438 120 44.0438H131.5L149 10.0438H151L168 44.0438H179.5C179.5 44.0438 164.372 18.0439 156 3.54384C153.657 -0.514615 146.343 -0.514608 144 3.54384Z" stroke="black" stroke-opacity="0.2"/>
<path d="M60.5 43.5438V3.04384H102C102 3.04384 106.498 5.38909 108 8.04384C109.646 10.953 109.5 16.5438 109.5 16.5438C109.5 16.5438 109.646 22.1347 108 25.0438C106.498 27.6986 102 30.0438 102 30.0438L98.5 30.1499L109.5 43.5438H98.5L88 30.4681L69 31.0438V43.5438H60.5Z" fill="black"/>
<path d="M88 30.4681C82.0955 30.647 76.5088 30.8163 69 31.0438V43.5438H60.5V3.04384H102C102 3.04384 106.498 5.38909 108 8.04384C109.646 10.953 109.5 16.5438 109.5 16.5438C109.5 16.5438 109.646 22.1347 108 25.0438C106.498 27.6986 102 30.0438 102 30.0438C100.786 30.0806 99.6228 30.1159 98.5 30.1499M88 30.4681L98.5 43.5438H109.5L98.5 30.1499M88 30.4681C91.2749 30.3688 94.6475 30.2666 98.5 30.1499" stroke="black"/>
<path d="M88 30.4681C82.0955 30.647 76.5088 30.8163 69 31.0438V43.5438H60.5V3.04384H102C102 3.04384 106.498 5.38909 108 8.04384C109.646 10.953 109.5 16.5438 109.5 16.5438C109.5 16.5438 109.646 22.1347 108 25.0438C106.498 27.6986 102 30.0438 102 30.0438C100.786 30.0806 99.6228 30.1159 98.5 30.1499M88 30.4681L98.5 43.5438H109.5L98.5 30.1499M88 30.4681C91.2749 30.3688 94.6475 30.2666 98.5 30.1499" stroke="black" stroke-opacity="0.2"/>
<path d="M97.5 10.0438H69L72.5 16.7938L69 23.5438H97.5C97.5 23.5438 99.3862 21.9399 100 20.5438C100.634 19.1027 100.5 16.5438 100.5 16.5438C100.5 16.5438 100.543 14.3133 100 13.0438C99.4002 11.6417 97.5 10.0438 97.5 10.0438Z" fill="#D9D8D8"/>
<path d="M97.5 10.0438H69L72.5 16.7938L69 23.5438H97.5C97.5 23.5438 99.3862 21.9399 100 20.5438C100.634 19.1027 100.5 16.5438 100.5 16.5438C100.5 16.5438 100.543 14.3133 100 13.0438C99.4002 11.6417 97.5 10.0438 97.5 10.0438Z" stroke="black"/>
<path d="M97.5 10.0438H69L72.5 16.7938L69 23.5438H97.5C97.5 23.5438 99.3862 21.9399 100 20.5438C100.634 19.1027 100.5 16.5438 100.5 16.5438C100.5 16.5438 100.543 14.3133 100 13.0438C99.4002 11.6417 97.5 10.0438 97.5 10.0438Z" stroke="black" stroke-opacity="0.2"/>
<path fill-rule="evenodd" clip-rule="evenodd" d="M0.5 44.0438V3.04384H8.5V21.5438V44.0438H0.5Z" fill="black"/>
<path fill-rule="evenodd" clip-rule="evenodd" d="M33.5 44.0438C23.7369 35.257 18.2631 30.3306 8.5 21.5438L33.5 3.04384H43.5L20.5 23.5438L47 44.0438H33.5Z" fill="black"/>
<path d="M8.5 21.5438V3.04384H0.5V44.0438H8.5V21.5438ZM8.5 21.5438C18.2631 30.3306 23.7369 35.257 33.5 44.0438H47L20.5 23.5438L43.5 3.04384H33.5L8.5 21.5438Z" stroke="black"/>
<path d="M131.45 78.3438C129.53 78.3438 127.76 78.0238 126.14 77.3838C124.54 76.7238 123.29 75.8238 122.39 74.6838C122.23 74.4838 122.15 74.2738 122.15 74.0538C122.15 73.7738 122.3 73.5038 122.6 73.2438C122.76 73.1238 122.93 73.0638 123.11 73.0638C123.47 73.0638 123.79 73.2338 124.07 73.5738C124.89 74.4738 125.92 75.1738 127.16 75.6738C128.42 76.1538 129.85 76.3938 131.45 76.3938C133.21 76.3938 134.57 76.0738 135.53 75.4338C136.49 74.7738 136.97 73.8438 136.97 72.6438C136.97 71.6038 136.5 70.7638 135.56 70.1238C134.64 69.4838 133.07 68.9138 130.85 68.4138C127.95 67.7738 125.86 66.9738 124.58 66.0138C123.32 65.0338 122.69 63.7438 122.69 62.1438C122.69 60.4838 123.39 59.1738 124.79 58.2138C126.21 57.2338 128.12 56.7438 130.52 56.7438C132.34 56.7438 133.98 57.0638 135.44 57.7038C136.92 58.3438 137.97 59.2038 138.59 60.2838C138.71 60.4838 138.77 60.6738 138.77 60.8538C138.77 61.1738 138.6 61.4538 138.26 61.6938C138.12 61.7738 137.96 61.8138 137.78 61.8138C137.34 61.8138 137 61.6438 136.76 61.3038C136.18 60.4638 135.36 59.8238 134.3 59.3838C133.24 58.9238 131.98 58.6938 130.52 58.6938C126.82 58.6938 124.97 59.8438 124.97 62.1438C124.97 62.8438 125.16 63.4338 125.54 63.9138C125.92 64.3738 126.53 64.7938 127.37 65.1738C128.23 65.5338 129.42 65.8938 130.94 66.2538C133.9 66.9538 136.03 67.8038 137.33 68.8038C138.63 69.7838 139.28 71.0638 139.28 72.6438C139.28 74.4038 138.57 75.7938 137.15 76.8138C135.75 77.8338 133.85 78.3438 131.45 78.3438ZM168.22 78.3438C166.2 78.3438 164.38 77.9038 162.76 77.0238C161.14 76.1238 159.86 74.8538 158.92 73.2138C158 71.5738 157.54 69.6838 157.54 67.5438C157.54 65.3838 158 63.4938 158.92 61.8738C159.86 60.2338 161.14 58.9738 162.76 58.0938C164.38 57.1938 166.2 56.7438 168.22 56.7438C170.24 56.7438 172.06 57.1938 173.68 58.0938C175.3 58.9738 176.57 60.2338 177.49 61.8738C178.43 63.4938 178.9 65.3838 178.9 67.5438C178.9 69.6838 178.43 71.5738 177.49 73.2138C176.57 74.8538 175.3 76.1238 173.68 77.0238C172.06 77.9038 170.24 78.3438 168.22 78.3438ZM168.22 76.4238C169.84 76.4238 171.28 76.0738 172.54 75.3738C173.82 74.6738 174.82 73.6638 175.54 72.3438C176.28 71.0038 176.65 69.4038 176.65 67.5438C176.65 65.6638 176.27 64.0538 175.51 62.7138C174.77 61.3738 173.75 60.3638 172.45 59.6838C171.17 59.0038 169.74 58.6638 168.16 58.6638C166.56 58.6638 165.12 59.0138 163.84 59.7138C162.58 60.4138 161.59 61.4338 160.87 62.7738C160.15 64.1138 159.79 65.7038 159.79 67.5438C159.79 69.4038 160.15 71.0038 160.87 72.3438C161.61 73.6638 162.61 74.6738 163.87 75.3738C165.15 76.0738 166.6 76.4238 168.22 76.4238ZM199.039 78.3438C198.699 78.3438 198.429 78.2438 198.229 78.0438C198.029 77.8238 197.929 77.5238 197.929 77.1438V60.6438C197.929 59.5238 198.259 58.6438 198.919 58.0038C199.599 57.3638 200.539 57.0438 201.739 57.0438H211.039C211.819 57.0438 212.209 57.3638 212.209 58.0038C212.209 58.2838 212.109 58.5038 211.909 58.6638C211.709 58.8238 211.419 58.9038 211.039 58.9038H201.769C201.289 58.9038 200.899 59.0638 200.599 59.3838C200.319 59.7038 200.179 60.1238 200.179 60.6438V66.6738H208.759C209.539 66.6738 209.929 66.9938 209.929 67.6338C209.929 67.9338 209.819 68.1638 209.599 68.3238C209.399 68.4838 209.119 68.5638 208.759 68.5638H200.179V77.1438C200.179 77.5238 200.079 77.8238 199.879 78.0438C199.679 78.2438 199.399 78.3438 199.039 78.3438ZM238.695 78.3438C238.335 78.3438 238.055 78.2438 237.855 78.0438C237.675 77.8238 237.585 77.5238 237.585 77.1438V58.9038H230.715C230.355 58.9038 230.065 58.8338 229.845 58.6938C229.645 58.5338 229.545 58.3038 229.545 58.0038C229.545 57.3638 229.935 57.0438 230.715 57.0438H246.735C247.515 57.0438 247.905 57.3638 247.905 58.0038C247.905 58.2838 247.805 58.5038 247.605 58.6638C247.405 58.8238 247.115 58.9038 246.735 58.9038H239.865V77.1438C239.865 77.5238 239.755 77.8238 239.535 78.0438C239.335 78.2438 239.055 78.3438 238.695 78.3438Z" fill="#5F5F66"/>
<path d="M94.72 69.5938C94.24 69.3138 94 68.9438 94 68.4838C94 68.0038 94.24 67.6338 94.72 67.3738L107.32 60.3238C107.54 60.1838 107.78 60.1138 108.04 60.1138C108.44 60.1138 108.74 60.2938 108.94 60.6538C109.06 60.8538 109.12 61.0538 109.12 61.2538C109.12 61.6338 108.91 61.9338 108.49 62.1538L96.79 68.4838L108.49 74.8138C108.91 75.0138 109.12 75.3138 109.12 75.7138C109.12 75.8938 109.06 76.0938 108.94 76.3138C108.74 76.6738 108.43 76.8538 108.01 76.8538C107.77 76.8538 107.54 76.7838 107.32 76.6438L94.72 69.5938Z" fill="#F30002"/>
<path d="M260.77 76.6438C260.53 76.7638 260.3 76.8238 260.08 76.8238C259.66 76.8238 259.35 76.6538 259.15 76.3138C259.03 76.1338 258.97 75.9438 258.97 75.7438C258.97 75.3838 259.19 75.0738 259.63 74.8138L271.3 68.4838L259.63 62.1538C259.19 61.9338 258.97 61.6138 258.97 61.1938C258.97 61.0138 259.03 60.8338 259.15 60.6538C259.35 60.3138 259.66 60.1438 260.08 60.1438C260.3 60.1438 260.53 60.2038 260.77 60.3238L273.4 67.3738C273.62 67.4938 273.79 67.6538 273.91 67.8538C274.03 68.0538 274.09 68.2638 274.09 68.4838C274.09 68.9838 273.86 69.3538 273.4 69.5938L260.77 76.6438Z" fill="#F30002"/>
</svg>
