<svg viewBox="0 0 358 80" fill="none" xmlns="http://www.w3.org/2000/svg">
<path d="M326.5 27.5438L304 2.54384H315.5L330 19.5438H332L345.5 2.54384H356.5L335.5 27.5438V44.0438H326.5V27.5438Z" fill="black"/>
<path d="M326.5 27.5438L304 2.54384H315.5L330 19.5438H332L345.5 2.54384H356.5L335.5 27.5438V44.0438H326.5V27.5438Z" stroke="black"/>
<path d="M326.5 27.5438L304 2.54384H315.5L330 19.5438H332L345.5 2.54384H356.5L335.5 27.5438V44.0438H326.5V27.5438Z" stroke="black" stroke-opacity="0.2"/>
<path d="M266 10.5438V44.0438H275V10.5438H293V2.54384H248V10.5438H266Z" fill="black"/>
<path d="M266 10.5438V44.0438H275V10.5438H293V2.54384H248V10.5438H266Z" stroke="black"/>
<path d="M266 10.5438V44.0438H275V10.5438H293V2.54384H248V10.5438H266Z" stroke="black" stroke-opacity="0.2"/>
<path d="M232 2.04384H197.5C197.5 2.04384 192.411 4.19065 190.5 6.54384C188.589 8.89702 187.639 11.1444 187.5 14.0438C187.355 17.0716 188.223 20.2667 190.5 22.5438C193 25.0438 197.5 26.5438 197.5 26.5438H224C224 26.5438 226.413 29.0354 226.5 31.0438C226.595 33.2249 224 36.0438 224 36.0438H191.5C191.5 36.0438 189.5 38.2974 189.5 40.0438C189.5 41.7903 191.5 44.0438 191.5 44.0438H225.5C225.5 44.0438 229.796 42.7074 232.5 39.5438C234.432 37.2827 235.05 33.599 235 31.0438C234.952 28.5971 233.874 25.5899 232 23.5438C229.296 20.5925 225.5 19.0438 225.5 19.0438H199.5C199.5 19.0438 197.5 16.3066 197.5 14.2938C197.5 12.2811 199.5 10.0438 199.5 10.0438H232C232 10.0438 233.5 7.53091 233.5 6.04384C233.5 4.55677 232 2.04384 232 2.04384Z" fill="black"/>
<path d="M232 2.04384H197.5C197.5 2.04384 192.411 4.19065 190.5 6.54384C188.589 8.89702 187.639 11.1444 187.5 14.0438C187.355 17.0716 188.223 20.2667 190.5 22.5438C193 25.0438 197.5 26.5438 197.5 26.5438H224C224 26.5438 226.413 29.0354 226.5 31.0438C226.595 33.2249 224 36.0438 224 36.0438H191.5C191.5 36.0438 189.5 38.2974 189.5 40.0438C189.5 41.7903 191.5 44.0438 191.5 44.0438H225.5C225.5 44.0438 229.796 42.7074 232.5 39.5438C234.432 37.2827 235.05 33.599 235 31.0438C234.952 28.5971 233.874 25.5899 232 23.5438C229.296 20.5925 225.5 19.0438 225.5 19.0438H199.5C199.5 19.0438 197.5 16.3066 197.5 14.2938C197.5 12.2811 199.5 10.0438 199.5 10.0438H232C232 10.0438 233.5 7.53091 233.5 6.04384C233.5 4.55677 232 2.04384 232 2.04384Z" stroke="black"/>
<path d="M232 2.04384H197.5C197.5 2.04384 192.411 4.19065 190.5 6.54384C188.589 8.89702 187.639 11.1444 187.5 14.0438C187.355 17.0716 188.223 20.2667 190.5 22.5438C193 25.0438 197.5 26.5438 197.5 26.5438H224C224 26.5438 226.413 29.0354 226.5 31.0438C226.595 33.2249 224 36.0438 224 36.0438H191.5C191.5 36.0438 189.5 38.2974 189.5 40.0438C189.5 41.7903 191.5 44.0438 191.5 44.0438H225.5C225.5 44.0438 229.796 42.7074 232.5 39.5438C234.432 37.2827 235.05 33.599 235 31.0438C234.952 28.5971 233.874 25.5899 232 23.5438C229.296 20.5925 225.5 19.0438 225.5 19.0438H199.5C199.5 19.0438 197.5 16.3066 197.5 14.2938C197.5 12.2811 199.5 10.0438 199.5 10.0438H232C232 10.0438 233.5 7.53091 233.5 6.04384C233.5 4.55677 232 2.04384 232 2.04384Z" stroke="black" stroke-opacity="0.2"/>
<path d="M137 44.0438H162.5L149.5 20.0438L137 44.0438Z" fill="#F30000"/>
<path d="M144 3.54384C134.762 19.5438 120 44.0438 120 44.0438H131.5L149 10.0438H151L168 44.0438H179.5C179.5 44.0438 164.372 18.0439 156 3.54384C153.657 -0.514615 146.343 -0.514608 144 3.54384Z" fill="black"/>
<path d="M144 3.54384C134.762 19.5438 120 44.0438 120 44.0438H131.5L149 10.0438H151L168 44.0438H179.5C179.5 44.0438 164.372 18.0439 156 3.54384C153.657 -0.514615 146.343 -0.514608 144 3.54384Z" stroke="black"/>
<path d="M144 3.54384C134.762 19.5438 120 44.0438 120 44.0438H131.5L149 10.0438H151L168 44.0438H179.5C179.5 44.0438 164.372 18.0439 156 3.54384C153.657 -0.514615 146.343 -0.514608 144 3.54384Z" stroke="black" stroke-opacity="0.2"/>
<path d="M60.5 43.5438V3.04384H102C102 3.04384 106.498 5.38909 108 8.04384C109.646 10.953 109.5 16.5438 109.5 16.5438C109.5 16.5438 109.646 22.1347 108 25.0438C106.498 27.6986 102 30.0438 102 30.0438L98.5 30.1499L109.5 43.5438H98.5L88 30.4681L69 31.0438V43.5438H60.5Z" fill="black"/>
<path d="M88 30.4681C82.0955 30.647 76.5088 30.8163 69 31.0438V43.5438H60.5V3.04384H102C102 3.04384 106.498 5.38909 108 8.04384C109.646 10.953 109.5 16.5438 109.5 16.5438C109.5 16.5438 109.646 22.1347 108 25.0438C106.498 27.6986 102 30.0438 102 30.0438C100.786 30.0806 99.6228 30.1159 98.5 30.1499M88 30.4681L98.5 43.5438H109.5L98.5 30.1499M88 30.4681C91.2749 30.3688 94.6475 30.2666 98.5 30.1499" stroke="black"/>
<path d="M88 30.4681C82.0955 30.647 76.5088 30.8163 69 31.0438V43.5438H60.5V3.04384H102C102 3.04384 106.498 5.38909 108 8.04384C109.646 10.953 109.5 16.5438 109.5 16.5438C109.5 16.5438 109.646 22.1347 108 25.0438C106.498 27.6986 102 30.0438 102 30.0438C100.786 30.0806 99.6228 30.1159 98.5 30.1499M88 30.4681L98.5 43.5438H109.5L98.5 30.1499M88 30.4681C91.2749 30.3688 94.6475 30.2666 98.5 30.1499" stroke="black" stroke-opacity="0.2"/>
<path d="M97.5 10.0438H69L72.5 16.7938L69 23.5438H97.5C97.5 23.5438 99.3862 21.9399 100 20.5438C100.634 19.1027 100.5 16.5438 100.5 16.5438C100.5 16.5438 100.543 14.3133 100 13.0438C99.4002 11.6417 97.5 10.0438 97.5 10.0438Z" fill="#D9D8D8"/>
<path d="M97.5 10.0438H69L72.5 16.7938L69 23.5438H97.5C97.5 23.5438 99.3862 21.9399 100 20.5438C100.634 19.1027 100.5 16.5438 100.5 16.5438C100.5 16.5438 100.543 14.3133 100 13.0438C99.4002 11.6417 97.5 10.0438 97.5 10.0438Z" stroke="black"/>
<path d="M97.5 10.0438H69L72.5 16.7938L69 23.5438H97.5C97.5 23.5438 99.3862 21.9399 100 20.5438C100.634 19.1027 100.5 16.5438 100.5 16.5438C100.5 16.5438 100.543 14.3133 100 13.0438C99.4002 11.6417 97.5 10.0438 97.5 10.0438Z" stroke="black" stroke-opacity="0.2"/>
<path fill-rule="evenodd" clip-rule="evenodd" d="M0.5 44.0438V3.04384H8.5V21.5438V44.0438H0.5Z" fill="black"/>
<path fill-rule="evenodd" clip-rule="evenodd" d="M33.5 44.0438C23.7369 35.257 18.2631 30.3306 8.5 21.5438L33.5 3.04384H43.5L20.5 23.5438L47 44.0438H33.5Z" fill="black"/>
<path d="M8.5 21.5438V3.04384H0.5V44.0438H8.5V21.5438ZM8.5 21.5438C18.2631 30.3306 23.7369 35.257 33.5 44.0438H47L20.5 23.5438L43.5 3.04384H33.5L8.5 21.5438Z" stroke="black"/>
<path d="M133.64 78.4038C131.336 78.4038 129.212 78.0198 127.268 77.2518C125.348 76.4598 123.848 75.3798 122.768 74.0118C122.576 73.7718 122.48 73.5198 122.48 73.2558C122.48 72.9198 122.66 72.5958 123.02 72.2838C123.212 72.1398 123.416 72.0678 123.632 72.0678C124.064 72.0678 124.448 72.2718 124.784 72.6798C125.768 73.7598 127.004 74.5998 128.492 75.1998C130.004 75.7758 131.72 76.0638 133.64 76.0638C135.752 76.0638 137.384 75.6798 138.536 74.9118C139.688 74.1198 140.264 73.0038 140.264 71.5638C140.264 70.3158 139.7 69.3078 138.572 68.5398C137.468 67.7718 135.584 67.0878 132.92 66.4878C129.44 65.7198 126.932 64.7598 125.396 63.6078C123.884 62.4318 123.128 60.8838 123.128 58.9638C123.128 56.9718 123.968 55.3998 125.648 54.2478C127.352 53.0718 129.644 52.4838 132.524 52.4838C134.708 52.4838 136.676 52.8678 138.428 53.6358C140.204 54.4038 141.464 55.4358 142.208 56.7318C142.352 56.9718 142.424 57.1998 142.424 57.4158C142.424 57.7998 142.22 58.1358 141.812 58.4238C141.644 58.5198 141.452 58.5678 141.236 58.5678C140.708 58.5678 140.3 58.3638 140.012 57.9558C139.316 56.9478 138.332 56.1798 137.06 55.6518C135.788 55.0998 134.276 54.8238 132.524 54.8238C128.084 54.8238 125.864 56.2038 125.864 58.9638C125.864 59.8038 126.092 60.5118 126.548 61.0878C127.004 61.6398 127.736 62.1438 128.744 62.5998C129.776 63.0318 131.204 63.4638 133.028 63.8958C136.58 64.7358 139.136 65.7558 140.696 66.9558C142.256 68.1318 143.036 69.6678 143.036 71.5638C143.036 73.6758 142.184 75.3438 140.48 76.5678C138.8 77.7918 136.52 78.4038 133.64 78.4038ZM177.764 78.4038C175.34 78.4038 173.156 77.8758 171.212 76.8198C169.268 75.7398 167.732 74.2158 166.604 72.2478C165.5 70.2798 164.948 68.0118 164.948 65.4438C164.948 62.8518 165.5 60.5838 166.604 58.6398C167.732 56.6718 169.268 55.1598 171.212 54.1038C173.156 53.0238 175.34 52.4838 177.764 52.4838C180.188 52.4838 182.372 53.0238 184.316 54.1038C186.26 55.1598 187.784 56.6718 188.888 58.6398C190.016 60.5838 190.58 62.8518 190.58 65.4438C190.58 68.0118 190.016 70.2798 188.888 72.2478C187.784 74.2158 186.26 75.7398 184.316 76.8198C182.372 77.8758 180.188 78.4038 177.764 78.4038ZM177.764 76.0998C179.708 76.0998 181.436 75.6798 182.948 74.8398C184.484 73.9998 185.684 72.7878 186.548 71.2038C187.436 69.5958 187.88 67.6758 187.88 65.4438C187.88 63.1878 187.424 61.2558 186.512 59.6478C185.624 58.0398 184.4 56.8278 182.84 56.0118C181.304 55.1958 179.588 54.7878 177.692 54.7878C175.772 54.7878 174.044 55.2078 172.508 56.0478C170.996 56.8878 169.808 58.1118 168.944 59.7198C168.08 61.3278 167.648 63.2358 167.648 65.4438C167.648 67.6758 168.08 69.5958 168.944 71.2038C169.832 72.7878 171.032 73.9998 172.544 74.8398C174.08 75.6798 175.82 76.0998 177.764 76.0998ZM214.747 78.4038C214.339 78.4038 214.015 78.2838 213.775 78.0438C213.535 77.7798 213.415 77.4198 213.415 76.9638V57.1638C213.415 55.8198 213.811 54.7638 214.603 53.9958C215.419 53.2278 216.547 52.8438 217.987 52.8438H229.147C230.083 52.8438 230.551 53.2278 230.551 53.9958C230.551 54.3318 230.431 54.5958 230.191 54.7878C229.951 54.9798 229.603 55.0758 229.147 55.0758H218.023C217.447 55.0758 216.979 55.2678 216.619 55.6518C216.283 56.0358 216.115 56.5398 216.115 57.1638V64.3998H226.411C227.347 64.3998 227.815 64.7838 227.815 65.5518C227.815 65.9118 227.683 66.1878 227.419 66.3798C227.179 66.5718 226.843 66.6678 226.411 66.6678H216.115V76.9638C216.115 77.4198 215.995 77.7798 215.755 78.0438C215.515 78.2838 215.179 78.4038 214.747 78.4038ZM262.334 78.4038C261.902 78.4038 261.566 78.2838 261.326 78.0438C261.11 77.7798 261.002 77.4198 261.002 76.9638V55.0758H252.758C252.326 55.0758 251.978 54.9918 251.714 54.8238C251.474 54.6318 251.354 54.3558 251.354 53.9958C251.354 53.2278 251.822 52.8438 252.758 52.8438H271.982C272.918 52.8438 273.386 53.2278 273.386 53.9958C273.386 54.3318 273.266 54.5958 273.026 54.7878C272.786 54.9798 272.438 55.0758 271.982 55.0758H263.738V76.9638C263.738 77.4198 263.606 77.7798 263.342 78.0438C263.102 78.2838 262.766 78.4038 262.334 78.4038Z" fill="#5F5F66"/>
<path d="M90.164 67.3038C89.588 66.9678 89.3 66.5238 89.3 65.9718C89.3 65.3958 89.588 64.9518 90.164 64.6398L105.284 56.1798C105.548 56.0118 105.836 55.9278 106.148 55.9278C106.628 55.9278 106.988 56.1438 107.228 56.5758C107.372 56.8158 107.444 57.0558 107.444 57.2958C107.444 57.7518 107.192 58.1118 106.688 58.3758L92.648 65.9718L106.688 73.5678C107.192 73.8078 107.444 74.1678 107.444 74.6478C107.444 74.8638 107.372 75.1038 107.228 75.3678C106.988 75.7998 106.616 76.0158 106.112 76.0158C105.824 76.0158 105.548 75.9318 105.284 75.7638L90.164 67.3038Z" fill="#F30002"/>
<path d="M286.424 75.7638C286.136 75.9078 285.86 75.9798 285.596 75.9798C285.092 75.9798 284.72 75.7758 284.48 75.3678C284.336 75.1518 284.264 74.9238 284.264 74.6838C284.264 74.2518 284.528 73.8798 285.056 73.5678L299.06 65.9718L285.056 58.3758C284.528 58.1118 284.264 57.7278 284.264 57.2238C284.264 57.0078 284.336 56.7918 284.48 56.5758C284.72 56.1678 285.092 55.9638 285.596 55.9638C285.86 55.9638 286.136 56.0358 286.424 56.1798L301.58 64.6398C301.844 64.7838 302.048 64.9758 302.192 65.2158C302.336 65.4558 302.408 65.7078 302.408 65.9718C302.408 66.5718 302.132 67.0158 301.58 67.3038L286.424 75.7638Z" fill="#F30002"/>
</svg>
