<svg viewBox="0 0 358 85" fill="none" xmlns="http://www.w3.org/2000/svg">
<path d="M326.5 27.5438L304 2.54382H315.5L330 19.5438H332L345.5 2.54382H356.5L335.5 27.5438V44.0438H326.5V27.5438Z" fill="#F0F0F0" stroke="#F0F0F0"/>
<path d="M266 10.5438V44.0438H275V10.5438H293V2.54382H248V10.5438H266Z" fill="#F0F0F0" stroke="#F0F0F0"/>
<path d="M232 2.04382H197.5C197.5 2.04382 192.411 4.19064 190.5 6.54382C188.589 8.89701 187.639 11.1444 187.5 14.0438C187.355 17.0716 188.223 20.2667 190.5 22.5438C193 25.0438 197.5 26.5438 197.5 26.5438H224C224 26.5438 226.413 29.0354 226.5 31.0438C226.595 33.2249 224 36.0438 224 36.0438H191.5C191.5 36.0438 189.5 38.2973 189.5 40.0438C189.5 41.7903 191.5 44.0438 191.5 44.0438H225.5C225.5 44.0438 229.796 42.7074 232.5 39.5438C234.432 37.2827 235.05 33.599 235 31.0438C234.952 28.5971 233.874 25.5899 232 23.5438C229.296 20.5925 225.5 19.0438 225.5 19.0438H199.5C199.5 19.0438 197.5 16.3065 197.5 14.2938C197.5 12.2811 199.5 10.0438 199.5 10.0438H232C232 10.0438 233.5 7.5309 233.5 6.04382C233.5 4.55675 232 2.04382 232 2.04382Z" fill="#F0F0F0" stroke="#F0F0F0"/>
<path d="M137 44.0438H162.5L149.5 20.0438L137 44.0438Z" fill="#F30000"/>
<path d="M144 3.54384C134.762 19.5438 120 44.0438 120 44.0438H131.5L149 10.0438H151L168 44.0438H179.5C179.5 44.0438 164.372 18.0439 156 3.54384C153.657 -0.514615 146.343 -0.514608 144 3.54384Z" fill="#F0F0F0" stroke="#F0F0F0"/>
<path d="M60.5 43.5438V3.04382H102C102 3.04382 106.498 5.38907 108 8.04382C109.646 10.953 109.5 16.5438 109.5 16.5438C109.5 16.5438 109.646 22.1347 108 25.0438C106.498 27.6986 102 30.0438 102 30.0438L98.5 30.1499L109.5 43.5438H98.5L88 30.4681L69 31.0438V43.5438H60.5Z" fill="#F0F0F0"/>
<path d="M88 30.4681C82.0955 30.647 76.5088 30.8163 69 31.0438V43.5438H60.5V3.04382H102C102 3.04382 106.498 5.38907 108 8.04382C109.646 10.953 109.5 16.5438 109.5 16.5438C109.5 16.5438 109.646 22.1347 108 25.0438C106.498 27.6986 102 30.0438 102 30.0438C100.786 30.0806 99.6228 30.1159 98.5 30.1499M88 30.4681L98.5 43.5438H109.5L98.5 30.1499M88 30.4681C91.2749 30.3688 94.6475 30.2666 98.5 30.1499" stroke="#F0F0F0"/>
<path d="M97.5 10.0438H69L72.5 16.5438L69 23.5438H97.5C97.5 23.5438 99.3862 21.9399 100 20.5438C100.634 19.1027 100.5 16.5438 100.5 16.5438C100.5 16.5438 100.543 14.3133 100 13.0438C99.4002 11.6417 97.5 10.0438 97.5 10.0438Z" fill="#0C0202" stroke="black"/>
<path fill-rule="evenodd" clip-rule="evenodd" d="M0.5 44.0438V3.04382H8.5V21.5438V44.0438H0.5Z" fill="#F0F0F0"/>
<path fill-rule="evenodd" clip-rule="evenodd" d="M33.5 44.0438C23.7369 35.257 18.2631 30.3306 8.5 21.5438L33.5 3.04382H43.5L20.5 23.5438L47 44.0438H33.5Z" fill="#F0F0F0"/>
<path d="M8.5 21.5438V3.04382H0.5V44.0438H8.5V21.5438ZM8.5 21.5438C18.2631 30.3306 23.7369 35.257 33.5 44.0438H47L20.5 23.5438L43.5 3.04382H33.5L8.5 21.5438Z" stroke="#F0F0F0"/>
<path d="M134.324 81.4038C132.02 81.4038 129.848 81.0078 127.808 80.2158C125.792 79.4238 124.1 78.3198 122.732 76.9038C122.42 76.6158 122.264 76.2678 122.264 75.8598C122.264 75.3558 122.48 74.9118 122.912 74.5278C123.224 74.2158 123.572 74.0598 123.956 74.0598C124.46 74.0598 124.976 74.3118 125.504 74.8158C126.584 75.8718 127.88 76.6878 129.392 77.2638C130.928 77.8158 132.572 78.0918 134.324 78.0918C136.1 78.0918 137.468 77.7798 138.428 77.1558C139.412 76.5318 139.904 75.6558 139.904 74.5278C139.904 73.4238 139.4 72.5358 138.392 71.8638C137.384 71.1678 135.668 70.5558 133.244 70.0278C129.668 69.2598 127.076 68.2518 125.468 67.0038C123.86 65.7318 123.056 64.0998 123.056 62.1078C123.056 60.8118 123.464 59.6598 124.28 58.6518C125.12 57.6438 126.284 56.8638 127.772 56.3118C129.284 55.7598 131.024 55.4838 132.992 55.4838C135.2 55.4838 137.18 55.8558 138.932 56.5998C140.708 57.3438 142.016 58.3758 142.856 59.6958C143.096 60.0798 143.216 60.4518 143.216 60.8118C143.216 61.3398 142.952 61.7838 142.424 62.1438C142.112 62.3358 141.8 62.4318 141.488 62.4318C141.2 62.4318 140.912 62.3598 140.624 62.2158C140.336 62.0718 140.096 61.8798 139.904 61.6398C139.208 60.7278 138.248 60.0318 137.024 59.5518C135.824 59.0478 134.48 58.7958 132.992 58.7958C131.12 58.7958 129.68 59.0838 128.672 59.6598C127.688 60.2118 127.196 61.0278 127.196 62.1078C127.196 63.1158 127.676 63.9438 128.636 64.5918C129.596 65.2158 131.288 65.8038 133.712 66.3558C137.384 67.2198 140.024 68.2878 141.632 69.5598C143.24 70.8318 144.044 72.4878 144.044 74.5278C144.044 75.8958 143.636 77.1078 142.82 78.1638C142.028 79.1958 140.9 79.9998 139.436 80.5758C137.972 81.1278 136.268 81.4038 134.324 81.4038ZM178.825 81.4038C176.161 81.4038 173.821 80.8638 171.805 79.7838C169.813 78.7038 168.277 77.1798 167.197 75.2118C166.117 73.2438 165.577 70.9878 165.577 68.4438C165.577 65.8998 166.117 63.6438 167.197 61.6758C168.277 59.7078 169.813 58.1838 171.805 57.1038C173.821 56.0238 176.161 55.4838 178.825 55.4838C181.489 55.4838 183.816 56.0238 185.809 57.1038C187.825 58.1838 189.373 59.7078 190.453 61.6758C191.533 63.6438 192.073 65.8998 192.073 68.4438C192.073 70.9878 191.533 73.2438 190.453 75.2118C189.373 77.1798 187.825 78.7038 185.809 79.7838C183.816 80.8638 181.489 81.4038 178.825 81.4038ZM178.825 78.1278C181.633 78.1278 183.853 77.2638 185.485 75.5358C187.117 73.8078 187.933 71.4438 187.933 68.4438C187.933 65.4198 187.093 63.0558 185.413 61.3518C183.757 59.6238 181.489 58.7598 178.609 58.7598C176.785 58.7598 175.201 59.1558 173.857 59.9478C172.513 60.7398 171.481 61.8678 170.761 63.3318C170.041 64.7958 169.681 66.4998 169.681 68.4438C169.681 70.4358 170.053 72.1638 170.797 73.6278C171.541 75.0678 172.597 76.1838 173.965 76.9758C175.333 77.7438 176.953 78.1278 178.825 78.1278ZM216.121 81.4038C215.497 81.4038 215.005 81.2358 214.645 80.8998C214.285 80.5638 214.105 80.0958 214.105 79.4958V60.8478C214.105 59.2878 214.561 58.0638 215.473 57.1758C216.385 56.2878 217.657 55.8438 219.289 55.8438H230.485C231.109 55.8438 231.589 55.9878 231.925 56.2758C232.261 56.5398 232.429 56.9358 232.429 57.4638C232.429 57.9678 232.261 58.3638 231.925 58.6518C231.589 58.9158 231.109 59.0478 230.485 59.0478H219.865C219.337 59.0478 218.929 59.2158 218.641 59.5518C218.353 59.8878 218.209 60.3438 218.209 60.9198V66.9318H227.749C228.373 66.9318 228.853 67.0758 229.189 67.3638C229.525 67.6278 229.693 68.0238 229.693 68.5518C229.693 69.0558 229.525 69.4518 229.189 69.7398C228.853 70.0038 228.373 70.1358 227.749 70.1358H218.209V79.4958C218.209 80.0718 218.017 80.5398 217.633 80.8998C217.249 81.2358 216.745 81.4038 216.121 81.4038ZM263.915 81.4038C263.291 81.4038 262.787 81.2358 262.403 80.8998C262.043 80.5638 261.863 80.0958 261.863 79.4958V59.0478H254.483C253.859 59.0478 253.379 58.9158 253.043 58.6518C252.707 58.3638 252.539 57.9678 252.539 57.4638C252.539 56.9358 252.707 56.5398 253.043 56.2758C253.379 55.9878 253.859 55.8438 254.483 55.8438H273.347C273.971 55.8438 274.451 55.9878 274.787 56.2758C275.147 56.5398 275.327 56.9358 275.327 57.4638C275.327 57.9678 275.147 58.3638 274.787 58.6518C274.451 58.9158 273.971 59.0478 273.347 59.0478H265.967V79.4958C265.967 80.0718 265.775 80.5398 265.391 80.8998C265.031 81.2358 264.539 81.4038 263.915 81.4038Z" fill="#C4C4C4"/>
<path d="M90.272 70.6998C89.456 70.2438 89.048 69.6678 89.048 68.9718C89.048 68.2758 89.456 67.6998 90.272 67.2438L105.608 58.7118C106.016 58.4958 106.4 58.3878 106.76 58.3878C107.384 58.3878 107.876 58.6878 108.236 59.2878C108.452 59.5998 108.56 59.9238 108.56 60.2598C108.56 60.5718 108.464 60.8718 108.272 61.1598C108.08 61.4238 107.804 61.6398 107.444 61.8078L94.232 68.9718L107.444 76.1358C108.188 76.5438 108.56 77.0598 108.56 77.6838C108.56 78.0198 108.452 78.3438 108.236 78.6558C107.828 79.2798 107.324 79.5918 106.724 79.5918C106.412 79.5918 106.04 79.4718 105.608 79.2318L90.272 70.6998Z" fill="#F30002"/>
<path d="M290 79.2318C289.568 79.4718 289.184 79.5918 288.848 79.5918C288.224 79.5918 287.732 79.2798 287.372 78.6558C287.156 78.3438 287.048 78.0198 287.048 77.6838C287.048 77.0598 287.42 76.5438 288.164 76.1358L301.376 68.9718L288.164 61.8078C287.42 61.3998 287.048 60.8838 287.048 60.2598C287.048 59.9238 287.156 59.5998 287.372 59.2878C287.732 58.6878 288.224 58.3878 288.848 58.3878C289.208 58.3878 289.592 58.4958 290 58.7118L305.336 67.2438C306.128 67.6758 306.524 68.2518 306.524 68.9718C306.524 69.6918 306.128 70.2678 305.336 70.6998L290 79.2318Z" fill="#F30002"/>
</svg>
