<svg width="358" height="141" viewBox="0 0 358 141" fill="none" xmlns="http://www.w3.org/2000/svg">
<path d="M326.5 27.5438L304 2.54382H315.5L330 19.5438H332L345.5 2.54382H356.5L335.5 27.5438V44.0438H326.5V27.5438Z" fill="#F0F0F0" stroke="#F0F0F0"/>
<path d="M266 10.5438V44.0438H275V10.5438H293V2.54382H248V10.5438H266Z" fill="#F0F0F0" stroke="#F0F0F0"/>
<path d="M232 2.04382H197.5C197.5 2.04382 192.411 4.19064 190.5 6.54382C188.589 8.89701 187.639 11.1444 187.5 14.0438C187.355 17.0716 188.223 20.2667 190.5 22.5438C193 25.0438 197.5 26.5438 197.5 26.5438H224C224 26.5438 226.413 29.0354 226.5 31.0438C226.595 33.2249 224 36.0438 224 36.0438H191.5C191.5 36.0438 189.5 38.2973 189.5 40.0438C189.5 41.7903 191.5 44.0438 191.5 44.0438H225.5C225.5 44.0438 229.796 42.7074 232.5 39.5438C234.432 37.2827 235.05 33.599 235 31.0438C234.952 28.5971 233.874 25.5899 232 23.5438C229.296 20.5925 225.5 19.0438 225.5 19.0438H199.5C199.5 19.0438 197.5 16.3065 197.5 14.2938C197.5 12.2811 199.5 10.0438 199.5 10.0438H232C232 10.0438 233.5 7.5309 233.5 6.04382C233.5 4.55675 232 2.04382 232 2.04382Z" fill="#F0F0F0" stroke="#F0F0F0"/>
<path d="M137 44.0438H162.5L149.5 20.0438L137 44.0438Z" fill="#F30000"/>
<path d="M144 3.54384C134.762 19.5438 120 44.0438 120 44.0438H131.5L149 10.0438H151L168 44.0438H179.5C179.5 44.0438 164.372 18.0439 156 3.54384C153.657 -0.514615 146.343 -0.514608 144 3.54384Z" fill="#F0F0F0" stroke="#F0F0F0"/>
<path d="M60.5 43.5438V3.04382H102C102 3.04382 106.498 5.38907 108 8.04382C109.646 10.953 109.5 16.5438 109.5 16.5438C109.5 16.5438 109.646 22.1347 108 25.0438C106.498 27.6986 102 30.0438 102 30.0438L98.5 30.1499L109.5 43.5438H98.5L88 30.4681L69 31.0438V43.5438H60.5Z" fill="#F0F0F0"/>
<path d="M88 30.4681C82.0955 30.647 76.5088 30.8163 69 31.0438V43.5438H60.5V3.04382H102C102 3.04382 106.498 5.38907 108 8.04382C109.646 10.953 109.5 16.5438 109.5 16.5438C109.5 16.5438 109.646 22.1347 108 25.0438C106.498 27.6986 102 30.0438 102 30.0438C100.786 30.0806 99.6228 30.1159 98.5 30.1499M88 30.4681L98.5 43.5438H109.5L98.5 30.1499M88 30.4681C91.2749 30.3688 94.6475 30.2666 98.5 30.1499" stroke="#F0F0F0"/>
<path d="M97.5 10.0438H69L72.5 16.5438L69 23.5438H97.5C97.5 23.5438 99.3862 21.9399 100 20.5438C100.634 19.1027 100.5 16.5438 100.5 16.5438C100.5 16.5438 100.543 14.3133 100 13.0438C99.4002 11.6417 97.5 10.0438 97.5 10.0438Z" fill="#0C0202" stroke="black"/>
<path fill-rule="evenodd" clip-rule="evenodd" d="M0.5 44.0438V3.04382H8.5V21.5438V44.0438H0.5Z" fill="#F0F0F0"/>
<path fill-rule="evenodd" clip-rule="evenodd" d="M33.5 44.0438C23.7369 35.257 18.2631 30.3306 8.5 21.5438L33.5 3.04382H43.5L20.5 23.5438L47 44.0438H33.5Z" fill="#F0F0F0"/>
<path d="M8.5 21.5438V3.04382H0.5V44.0438H8.5V21.5438ZM8.5 21.5438C18.2631 30.3306 23.7369 35.257 33.5 44.0438H47L20.5 23.5438L43.5 3.04382H33.5L8.5 21.5438Z" stroke="#F0F0F0"/>
<path d="M131.45 79.3438C129.53 79.3438 127.76 79.0238 126.14 78.3838C124.54 77.7238 123.29 76.8238 122.39 75.6838C122.23 75.4838 122.15 75.2738 122.15 75.0538C122.15 74.7738 122.3 74.5038 122.6 74.2438C122.76 74.1238 122.93 74.0638 123.11 74.0638C123.47 74.0638 123.79 74.2338 124.07 74.5738C124.89 75.4738 125.92 76.1738 127.16 76.6738C128.42 77.1538 129.85 77.3938 131.45 77.3938C133.21 77.3938 134.57 77.0738 135.53 76.4338C136.49 75.7738 136.97 74.8438 136.97 73.6438C136.97 72.6038 136.5 71.7638 135.56 71.1238C134.64 70.4838 133.07 69.9138 130.85 69.4138C127.95 68.7738 125.86 67.9738 124.58 67.0138C123.32 66.0338 122.69 64.7438 122.69 63.1438C122.69 61.4838 123.39 60.1738 124.79 59.2138C126.21 58.2338 128.12 57.7438 130.52 57.7438C132.34 57.7438 133.98 58.0638 135.44 58.7038C136.92 59.3438 137.97 60.2038 138.59 61.2838C138.71 61.4838 138.77 61.6738 138.77 61.8538C138.77 62.1738 138.6 62.4538 138.26 62.6938C138.12 62.7738 137.96 62.8138 137.78 62.8138C137.34 62.8138 137 62.6438 136.76 62.3038C136.18 61.4638 135.36 60.8238 134.3 60.3838C133.24 59.9238 131.98 59.6938 130.52 59.6938C126.82 59.6938 124.97 60.8438 124.97 63.1438C124.97 63.8438 125.16 64.4338 125.54 64.9138C125.92 65.3738 126.53 65.7938 127.37 66.1738C128.23 66.5338 129.42 66.8938 130.94 67.2538C133.9 67.9538 136.03 68.8038 137.33 69.8038C138.63 70.7838 139.28 72.0638 139.28 73.6438C139.28 75.4038 138.57 76.7938 137.15 77.8138C135.75 78.8338 133.85 79.3438 131.45 79.3438ZM168.22 79.3438C166.2 79.3438 164.38 78.9038 162.76 78.0238C161.14 77.1238 159.86 75.8538 158.92 74.2138C158 72.5738 157.54 70.6838 157.54 68.5438C157.54 66.3838 158 64.4938 158.92 62.8738C159.86 61.2338 161.14 59.9738 162.76 59.0938C164.38 58.1938 166.2 57.7438 168.22 57.7438C170.24 57.7438 172.06 58.1938 173.68 59.0938C175.3 59.9738 176.57 61.2338 177.49 62.8738C178.43 64.4938 178.9 66.3838 178.9 68.5438C178.9 70.6838 178.43 72.5738 177.49 74.2138C176.57 75.8538 175.3 77.1238 173.68 78.0238C172.06 78.9038 170.24 79.3438 168.22 79.3438ZM168.22 77.4238C169.84 77.4238 171.28 77.0738 172.54 76.3738C173.82 75.6738 174.82 74.6638 175.54 73.3438C176.28 72.0038 176.65 70.4038 176.65 68.5438C176.65 66.6638 176.27 65.0538 175.51 63.7138C174.77 62.3738 173.75 61.3638 172.45 60.6838C171.17 60.0038 169.74 59.6638 168.16 59.6638C166.56 59.6638 165.12 60.0138 163.84 60.7138C162.58 61.4138 161.59 62.4338 160.87 63.7738C160.15 65.1138 159.79 66.7038 159.79 68.5438C159.79 70.4038 160.15 72.0038 160.87 73.3438C161.61 74.6638 162.61 75.6738 163.87 76.3738C165.15 77.0738 166.6 77.4238 168.22 77.4238ZM199.039 79.3438C198.699 79.3438 198.429 79.2438 198.229 79.0438C198.029 78.8238 197.929 78.5238 197.929 78.1438V61.6438C197.929 60.5238 198.259 59.6438 198.919 59.0038C199.599 58.3638 200.539 58.0438 201.739 58.0438H211.039C211.819 58.0438 212.209 58.3638 212.209 59.0038C212.209 59.2838 212.109 59.5038 211.909 59.6638C211.709 59.8238 211.419 59.9038 211.039 59.9038H201.769C201.289 59.9038 200.899 60.0638 200.599 60.3838C200.319 60.7038 200.179 61.1238 200.179 61.6438V67.6738H208.759C209.539 67.6738 209.929 67.9938 209.929 68.6338C209.929 68.9338 209.819 69.1638 209.599 69.3238C209.399 69.4838 209.119 69.5638 208.759 69.5638H200.179V78.1438C200.179 78.5238 200.079 78.8238 199.879 79.0438C199.679 79.2438 199.399 79.3438 199.039 79.3438ZM238.695 79.3438C238.335 79.3438 238.055 79.2438 237.855 79.0438C237.675 78.8238 237.585 78.5238 237.585 78.1438V59.9038H230.715C230.355 59.9038 230.065 59.8338 229.845 59.6938C229.645 59.5338 229.545 59.3038 229.545 59.0038C229.545 58.3638 229.935 58.0438 230.715 58.0438H246.735C247.515 58.0438 247.905 58.3638 247.905 59.0038C247.905 59.2838 247.805 59.5038 247.605 59.6638C247.405 59.8238 247.115 59.9038 246.735 59.9038H239.865V78.1438C239.865 78.5238 239.755 78.8238 239.535 79.0438C239.335 79.2438 239.055 79.3438 238.695 79.3438Z" fill="#5F5F66"/>
<path d="M94.72 70.5938C94.24 70.3138 94 69.9438 94 69.4838C94 69.0038 94.24 68.6338 94.72 68.3738L107.32 61.3238C107.54 61.1838 107.78 61.1138 108.04 61.1138C108.44 61.1138 108.74 61.2938 108.94 61.6538C109.06 61.8538 109.12 62.0538 109.12 62.2538C109.12 62.6338 108.91 62.9338 108.49 63.1538L96.79 69.4838L108.49 75.8138C108.91 76.0138 109.12 76.3138 109.12 76.7138C109.12 76.8938 109.06 77.0938 108.94 77.3138C108.74 77.6738 108.43 77.8538 108.01 77.8538C107.77 77.8538 107.54 77.7838 107.32 77.6438L94.72 70.5938Z" fill="#F30002"/>
<path d="M260.77 77.6438C260.53 77.7638 260.3 77.8238 260.08 77.8238C259.66 77.8238 259.35 77.6538 259.15 77.3138C259.03 77.1338 258.97 76.9438 258.97 76.7438C258.97 76.3838 259.19 76.0738 259.63 75.8138L271.3 69.4838L259.63 63.1538C259.19 62.9338 258.97 62.6138 258.97 62.1938C258.97 62.0138 259.03 61.8338 259.15 61.6538C259.35 61.3138 259.66 61.1438 260.08 61.1438C260.3 61.1438 260.53 61.2038 260.77 61.3238L273.4 68.3738C273.62 68.4938 273.79 68.6538 273.91 68.8538C274.03 69.0538 274.09 69.2638 274.09 69.4838C274.09 69.9838 273.86 70.3538 273.4 70.5938L260.77 77.6438Z" fill="#F30002"/>
</svg>
