<svg viewBox="0 0 358 85" fill="none" xmlns="http://www.w3.org/2000/svg">
<path d="M326.5 27.5438L304 2.54382H315.5L330 19.5438H332L345.5 2.54382H356.5L335.5 27.5438V44.0438H326.5V27.5438Z" fill="#F0F0F0" stroke="#F0F0F0"/>
<path d="M266 10.5438V44.0438H275V10.5438H293V2.54382H248V10.5438H266Z" fill="#F0F0F0" stroke="#F0F0F0"/>
<path d="M232 2.04382H197.5C197.5 2.04382 192.411 4.19064 190.5 6.54382C188.589 8.89701 187.639 11.1444 187.5 14.0438C187.355 17.0716 188.223 20.2667 190.5 22.5438C193 25.0438 197.5 26.5438 197.5 26.5438H224C224 26.5438 226.413 29.0354 226.5 31.0438C226.595 33.2249 224 36.0438 224 36.0438H191.5C191.5 36.0438 189.5 38.2973 189.5 40.0438C189.5 41.7903 191.5 44.0438 191.5 44.0438H225.5C225.5 44.0438 229.796 42.7074 232.5 39.5438C234.432 37.2827 235.05 33.599 235 31.0438C234.952 28.5971 233.874 25.5899 232 23.5438C229.296 20.5925 225.5 19.0438 225.5 19.0438H199.5C199.5 19.0438 197.5 16.3065 197.5 14.2938C197.5 12.2811 199.5 10.0438 199.5 10.0438H232C232 10.0438 233.5 7.5309 233.5 6.04382C233.5 4.55675 232 2.04382 232 2.04382Z" fill="#F0F0F0" stroke="#F0F0F0"/>
<path d="M137 44.0438H162.5L149.5 20.0438L137 44.0438Z" fill="#F30000"/>
<path d="M144 3.54384C134.762 19.5438 120 44.0438 120 44.0438H131.5L149 10.0438H151L168 44.0438H179.5C179.5 44.0438 164.372 18.0439 156 3.54384C153.657 -0.514615 146.343 -0.514608 144 3.54384Z" fill="#F0F0F0" stroke="#F0F0F0"/>
<path d="M60.5 43.5438V3.04382H102C102 3.04382 106.498 5.38907 108 8.04382C109.646 10.953 109.5 16.5438 109.5 16.5438C109.5 16.5438 109.646 22.1347 108 25.0438C106.498 27.6986 102 30.0438 102 30.0438L98.5 30.1499L109.5 43.5438H98.5L88 30.4681L69 31.0438V43.5438H60.5Z" fill="#F0F0F0"/>
<path d="M88 30.4681C82.0955 30.647 76.5088 30.8163 69 31.0438V43.5438H60.5V3.04382H102C102 3.04382 106.498 5.38907 108 8.04382C109.646 10.953 109.5 16.5438 109.5 16.5438C109.5 16.5438 109.646 22.1347 108 25.0438C106.498 27.6986 102 30.0438 102 30.0438C100.786 30.0806 99.6228 30.1159 98.5 30.1499M88 30.4681L98.5 43.5438H109.5L98.5 30.1499M88 30.4681C91.2749 30.3688 94.6475 30.2666 98.5 30.1499" stroke="#F0F0F0"/>
<path d="M97.5 10.0438H69L72.5 16.5438L69 23.5438H97.5C97.5 23.5438 99.3862 21.9399 100 20.5438C100.634 19.1027 100.5 16.5438 100.5 16.5438C100.5 16.5438 100.543 14.3133 100 13.0438C99.4002 11.6417 97.5 10.0438 97.5 10.0438Z" fill="#0C0202" stroke="black"/>
<path fill-rule="evenodd" clip-rule="evenodd" d="M0.5 44.0438V3.04382H8.5V21.5438V44.0438H0.5Z" fill="#F0F0F0"/>
<path fill-rule="evenodd" clip-rule="evenodd" d="M33.5 44.0438C23.7369 35.257 18.2631 30.3306 8.5 21.5438L33.5 3.04382H43.5L20.5 23.5438L47 44.0438H33.5Z" fill="#F0F0F0"/>
<path d="M8.5 21.5438V3.04382H0.5V44.0438H8.5V21.5438ZM8.5 21.5438C18.2631 30.3306 23.7369 35.257 33.5 44.0438H47L20.5 23.5438L43.5 3.04382H33.5L8.5 21.5438Z" stroke="#F0F0F0"/>
<path d="M133.64 81.4038C131.336 81.4038 129.212 81.0198 127.268 80.2518C125.348 79.4598 123.848 78.3798 122.768 77.0118C122.576 76.7718 122.48 76.5198 122.48 76.2558C122.48 75.9198 122.66 75.5958 123.02 75.2838C123.212 75.1398 123.416 75.0678 123.632 75.0678C124.064 75.0678 124.448 75.2718 124.784 75.6798C125.768 76.7598 127.004 77.5998 128.492 78.1998C130.004 78.7758 131.72 79.0638 133.64 79.0638C135.752 79.0638 137.384 78.6798 138.536 77.9118C139.688 77.1198 140.264 76.0038 140.264 74.5638C140.264 73.3158 139.7 72.3078 138.572 71.5398C137.468 70.7718 135.584 70.0878 132.92 69.4878C129.44 68.7198 126.932 67.7598 125.396 66.6078C123.884 65.4318 123.128 63.8838 123.128 61.9638C123.128 59.9718 123.968 58.3998 125.648 57.2478C127.352 56.0718 129.644 55.4838 132.524 55.4838C134.708 55.4838 136.676 55.8678 138.428 56.6358C140.204 57.4038 141.464 58.4358 142.208 59.7318C142.352 59.9718 142.424 60.1998 142.424 60.4158C142.424 60.7998 142.22 61.1358 141.812 61.4238C141.644 61.5198 141.452 61.5678 141.236 61.5678C140.708 61.5678 140.3 61.3638 140.012 60.9558C139.316 59.9478 138.332 59.1798 137.06 58.6518C135.788 58.0998 134.276 57.8238 132.524 57.8238C128.084 57.8238 125.864 59.2038 125.864 61.9638C125.864 62.8038 126.092 63.5118 126.548 64.0878C127.004 64.6398 127.736 65.1438 128.744 65.5998C129.776 66.0318 131.204 66.4638 133.028 66.8958C136.58 67.7358 139.136 68.7558 140.696 69.9558C142.256 71.1318 143.036 72.6678 143.036 74.5638C143.036 76.6758 142.184 78.3438 140.48 79.5678C138.8 80.7918 136.52 81.4038 133.64 81.4038ZM177.764 81.4038C175.34 81.4038 173.156 80.8758 171.212 79.8198C169.268 78.7398 167.732 77.2158 166.604 75.2478C165.5 73.2798 164.948 71.0118 164.948 68.4438C164.948 65.8518 165.5 63.5838 166.604 61.6398C167.732 59.6718 169.268 58.1598 171.212 57.1038C173.156 56.0238 175.34 55.4838 177.764 55.4838C180.188 55.4838 182.372 56.0238 184.316 57.1038C186.26 58.1598 187.784 59.6718 188.888 61.6398C190.016 63.5838 190.58 65.8518 190.58 68.4438C190.58 71.0118 190.016 73.2798 188.888 75.2478C187.784 77.2158 186.26 78.7398 184.316 79.8198C182.372 80.8758 180.188 81.4038 177.764 81.4038ZM177.764 79.0998C179.708 79.0998 181.436 78.6798 182.948 77.8398C184.484 76.9998 185.684 75.7878 186.548 74.2038C187.436 72.5958 187.88 70.6758 187.88 68.4438C187.88 66.1878 187.424 64.2558 186.512 62.6478C185.624 61.0398 184.4 59.8278 182.84 59.0118C181.304 58.1958 179.588 57.7878 177.692 57.7878C175.772 57.7878 174.044 58.2078 172.508 59.0478C170.996 59.8878 169.808 61.1118 168.944 62.7198C168.08 64.3278 167.648 66.2358 167.648 68.4438C167.648 70.6758 168.08 72.5958 168.944 74.2038C169.832 75.7878 171.032 76.9998 172.544 77.8398C174.08 78.6798 175.82 79.0998 177.764 79.0998ZM214.747 81.4038C214.339 81.4038 214.015 81.2838 213.775 81.0438C213.535 80.7798 213.415 80.4198 213.415 79.9638V60.1638C213.415 58.8198 213.811 57.7638 214.603 56.9958C215.419 56.2278 216.547 55.8438 217.987 55.8438H229.147C230.083 55.8438 230.551 56.2278 230.551 56.9958C230.551 57.3318 230.431 57.5958 230.191 57.7878C229.951 57.9798 229.603 58.0758 229.147 58.0758H218.023C217.447 58.0758 216.979 58.2678 216.619 58.6518C216.283 59.0358 216.115 59.5398 216.115 60.1638V67.3998H226.411C227.347 67.3998 227.815 67.7838 227.815 68.5518C227.815 68.9118 227.683 69.1878 227.419 69.3798C227.179 69.5718 226.843 69.6678 226.411 69.6678H216.115V79.9638C216.115 80.4198 215.995 80.7798 215.755 81.0438C215.515 81.2838 215.179 81.4038 214.747 81.4038ZM262.334 81.4038C261.902 81.4038 261.566 81.2838 261.326 81.0438C261.11 80.7798 261.002 80.4198 261.002 79.9638V58.0758H252.758C252.326 58.0758 251.978 57.9918 251.714 57.8238C251.474 57.6318 251.354 57.3558 251.354 56.9958C251.354 56.2278 251.822 55.8438 252.758 55.8438H271.982C272.918 55.8438 273.386 56.2278 273.386 56.9958C273.386 57.3318 273.266 57.5958 273.026 57.7878C272.786 57.9798 272.438 58.0758 271.982 58.0758H263.738V79.9638C263.738 80.4198 263.606 80.7798 263.342 81.0438C263.102 81.2838 262.766 81.4038 262.334 81.4038Z" fill="#8C8C8C"/>
<path d="M90.164 70.3038C89.588 69.9678 89.3 69.5238 89.3 68.9718C89.3 68.3958 89.588 67.9518 90.164 67.6398L105.284 59.1798C105.548 59.0118 105.836 58.9278 106.148 58.9278C106.628 58.9278 106.988 59.1438 107.228 59.5758C107.372 59.8158 107.444 60.0558 107.444 60.2958C107.444 60.7518 107.192 61.1118 106.688 61.3758L92.648 68.9718L106.688 76.5678C107.192 76.8078 107.444 77.1678 107.444 77.6478C107.444 77.8638 107.372 78.1038 107.228 78.3678C106.988 78.7998 106.616 79.0158 106.112 79.0158C105.824 79.0158 105.548 78.9318 105.284 78.7638L90.164 70.3038Z" fill="#F30002"/>
<path d="M286.424 78.7638C286.136 78.9078 285.86 78.9798 285.596 78.9798C285.092 78.9798 284.72 78.7758 284.48 78.3678C284.336 78.1518 284.264 77.9238 284.264 77.6838C284.264 77.2518 284.528 76.8798 285.056 76.5678L299.06 68.9718L285.056 61.3758C284.528 61.1118 284.264 60.7278 284.264 60.2238C284.264 60.0078 284.336 59.7918 284.48 59.5758C284.72 59.1678 285.092 58.9638 285.596 58.9638C285.86 58.9638 286.136 59.0358 286.424 59.1798L301.58 67.6398C301.844 67.7838 302.048 67.9758 302.192 68.2158C302.336 68.4558 302.408 68.7078 302.408 68.9718C302.408 69.5718 302.132 70.0158 301.58 70.3038L286.424 78.7638Z" fill="#F30002"/>
</svg>
