<svg width="14" height="14" viewBox="0 0 14 14" fill="none" xmlns="http://www.w3.org/2000/svg">
<path d="M13.6143 7.55078H8.76189C8.54982 7.55078 8.37695 7.7206 8.37695 7.92889C8.37695 8.03498 8.42285 8.13055 8.49442 8.1995L11.9112 11.5561C11.9814 11.6304 12.0828 11.6769 12.1936 11.6769C12.3272 11.6769 12.4447 11.6105 12.5136 11.5097C13.3536 10.5518 13.8939 9.33518 13.9911 7.99652C13.9965 7.97398 13.9992 7.95143 13.9992 7.92885C13.9993 7.7206 13.8277 7.55078 13.6143 7.55078Z" fill="white"/>
<path d="M7.29761 0.699219C7.08555 0.700492 6.91406 0.86904 6.91406 1.07733V6.37496C6.91406 6.5846 7.08555 6.75442 7.29761 6.75442H12.6917C12.9037 6.75442 13.0765 6.5846 13.0765 6.37496C12.8861 3.32619 10.4025 0.88632 7.29761 0.699219Z" fill="white"/>
<path d="M10.2627 11.2496L6.28405 7.34107C6.21655 7.2734 6.17605 7.17919 6.17605 7.07704L6.17463 1.55648C6.17463 1.34819 6.00314 1.17969 5.79108 1.17969C2.55927 1.37341 0 4.01091 0 7.23362C0 10.5836 2.76459 13.3008 6.17463 13.3008C7.73044 13.3008 9.1512 12.7356 10.237 11.8028C10.3208 11.7338 10.3735 11.6304 10.3735 11.515C10.3735 11.4128 10.3315 11.3186 10.2627 11.2496Z" fill="white"/>
</svg>
