<svg width="20" height="20" viewBox="0 0 20 20" fill="none" xmlns="http://www.w3.org/2000/svg">
<g id="benefit-tech">
<path id="Tech" d="M18.6811 8.18589C19.141 6.82397 18.9826 5.33206 18.2473 4.0933C17.1413 2.19326 14.918 1.21572 12.7467 1.67576C11.7808 0.601969 10.393 -0.00865725 8.93805 9.27647e-05C6.71859 -0.00490724 4.74933 1.40513 4.06649 3.48893C2.64067 3.77705 1.40999 4.65772 0.689777 5.90585C-0.424365 7.80089 -0.170373 10.1897 1.31814 11.8147C0.8583 13.1766 1.01665 14.6686 1.75202 15.9073C2.85797 17.8074 5.08122 18.7849 7.25254 18.3249C8.21788 19.3986 9.60628 20.0093 11.0612 19.9999C13.282 20.0055 15.2518 18.5942 15.9347 16.5086C17.3605 16.2204 18.5912 15.3398 19.3114 14.0916C20.4243 12.1966 20.1697 9.80968 18.6818 8.18464L18.6811 8.18589ZM11.0625 18.693C10.1738 18.6943 9.31302 18.3874 8.63085 17.8255C8.66189 17.8093 8.71572 17.7799 8.75056 17.7586L12.7866 15.4586C12.9931 15.343 13.1198 15.1261 13.1185 14.8917V9.27714L14.8243 10.2491C14.8427 10.2578 14.8547 10.2753 14.8572 10.2953V14.9448C14.8547 17.0124 13.1578 18.6886 11.0625 18.693ZM2.90163 15.2536C2.45636 14.4948 2.29611 13.6054 2.44876 12.7423C2.47852 12.7598 2.5311 12.7916 2.56847 12.8129L6.60454 15.1129C6.80913 15.2311 7.06248 15.2311 7.2677 15.1129L12.195 12.3053V14.2491C12.1963 14.2691 12.1868 14.2885 12.1709 14.301L8.09116 16.6254C6.27391 17.658 3.95311 17.0442 2.90227 15.2535L2.90163 15.2536ZM1.83943 6.56022C2.28281 5.80022 2.98275 5.21893 3.81629 4.91705C3.81629 4.95143 3.81439 5.01205 3.81439 5.05455V9.6553C3.81313 9.88906 3.93981 10.1059 4.14566 10.2216L9.07296 13.0285L7.36719 14.0004C7.35009 14.0116 7.32855 14.0135 7.30955 14.0054L3.22914 11.6791C1.41569 10.6428 0.793694 8.35339 1.8388 6.56085L1.83943 6.56022ZM15.8542 9.77843L10.9269 6.97085L12.6327 5.9996C12.6498 5.98835 12.6713 5.98647 12.6903 5.9946L16.7707 8.31901C18.5873 9.35464 19.21 11.6478 18.1604 13.4404C17.7164 14.1991 17.0171 14.7804 16.1842 15.0829V10.3447C16.1861 10.1109 16.0601 9.89468 15.8548 9.77843H15.8542ZM17.5517 7.2571C17.522 7.23897 17.4694 7.20772 17.432 7.18647L13.396 4.88643C13.1914 4.7683 12.938 4.7683 12.7328 4.88643L7.8055 7.69397V5.75018C7.80423 5.73018 7.81373 5.71081 7.82957 5.69831L11.9093 3.37576C13.7266 2.34135 16.0499 2.95701 17.0976 4.7508C17.5403 5.50834 17.7006 6.39522 17.5505 7.2571H17.5517ZM6.87821 10.7216L5.1718 9.74968C5.15343 9.74093 5.1414 9.72343 5.13886 9.70343V5.05393C5.14013 2.98389 6.8421 1.30634 8.93995 1.30759C9.82733 1.30759 10.6863 1.6151 11.3684 2.1751C11.3374 2.19135 11.2842 2.22072 11.2487 2.24197L7.21264 4.54205C7.00615 4.65768 6.87947 4.87393 6.88074 5.1083L6.87821 10.7203V10.7216ZM7.80486 8.75026L9.99962 7.4996L12.1944 8.74964V11.2503L9.99962 12.5003L7.80486 11.2503V8.75026Z" fill="#121514"/>
</g>
</svg>
