<svg width="20" height="20" viewBox="0 0 20 20" fill="none" xmlns="http://www.w3.org/2000/svg">
<g id="benefit-time">
<path id="Vector" d="M19.2304 6.1675C18.7306 4.9475 18.001 3.8575 17.0615 2.9275C16.1219 1.9975 15.0325 1.2675 13.8231 0.7575C11.3843 -0.2525 8.6057 -0.2525 6.16692 0.7575C4.94753 1.2575 3.85807 1.9875 2.92854 2.9275C1.999 3.8575 1.26937 4.9475 0.75962 6.1675C0.249875 7.3875 0 8.6775 0 9.9975C0 11.3175 0.25987 12.6075 0.75962 13.8275C1.25937 15.0475 1.98901 16.1375 2.92854 17.0675C3.86807 17.9975 4.94753 18.7275 6.16692 19.2375C7.38631 19.7475 8.67566 19.9975 9.995 19.9975C11.3143 19.9975 12.6037 19.7375 13.8231 19.2375C15.0425 18.7375 16.1319 18.0075 17.0715 17.0675C18.001 16.1375 18.7306 15.0375 19.2404 13.8275C19.7401 12.6075 20 11.3175 20 9.9975C20 8.6775 19.7401 7.3875 19.2404 6.1675H19.2304ZM17.3813 13.0575C16.9815 14.0275 16.3918 14.9075 15.6522 15.6575C14.9025 16.4075 14.033 16.9875 13.0535 17.3875C11.1044 18.1975 8.88556 18.1975 6.93653 17.3875C5.95702 16.9875 5.08746 16.3975 4.33783 15.6575C3.58821 14.9075 3.0085 14.0375 2.6087 13.0575C2.2089 12.0775 1.999 11.0475 1.999 9.9975C1.999 8.9475 2.2089 7.9075 2.6087 6.9375C3.0085 5.9575 3.5982 5.0875 4.33783 4.3375C5.08746 3.5875 5.95702 3.0075 6.92654 2.6075C7.90605 2.2075 8.93553 1.9975 9.98501 1.9975C11.0345 1.9975 12.074 2.2075 13.0435 2.6075C14.013 3.0075 14.8926 3.5975 15.6422 4.3375C16.3918 5.0875 16.9715 5.9575 17.3713 6.9375C17.7711 7.9075 17.981 8.9375 17.981 9.9975C17.981 11.0575 17.7711 12.0875 17.3713 13.0575H17.3813Z" fill="#121514"/>
<path id="Vector_2" d="M9.99507 3.99756C9.44534 3.99756 8.99557 4.44756 8.99557 4.99756V8.99756H6.49681C5.94709 8.99756 5.49731 9.44756 5.49731 9.99756C5.49731 10.5476 5.94709 10.9976 6.49681 10.9976H9.99507C10.5448 10.9976 10.9946 10.5476 10.9946 9.99756V4.99756C10.9946 4.44756 10.5448 3.99756 9.99507 3.99756Z" fill="#121514"/>
</g>
</svg>
