<svg width="20" height="20" viewBox="0 0 20 20" fill="none" xmlns="http://www.w3.org/2000/svg">
<g id="benefit-quality">
<path id="Vector" d="M10 19.5C7.33 19.5 4.82 18.46 2.93 16.57C1.04 14.68 0 12.17 0 9.5V3.5C0 2.7 0.31 1.95 0.88 1.38C1.45 0.81 2.2 0.5 3 0.5H17C17.8 0.5 18.55 0.81 19.12 1.38C19.69 1.95 20 2.7 20 3.5V9.5C20 12.17 18.96 14.68 17.07 16.57C15.18 18.46 12.67 19.5 10 19.5ZM3 2.5C2.74 2.5 2.48 2.61 2.29 2.79C2.1 2.98 2 3.23 2 3.5V9.5C2 11.64 2.83 13.65 4.34 15.16C5.85 16.67 7.86 17.5 10 17.5C12.14 17.5 14.15 16.67 15.66 15.16C17.17 13.65 18 11.64 18 9.5V3.5C18 3.24 17.89 2.98 17.71 2.79C17.52 2.6 17.27 2.5 17 2.5H3Z" fill="#121514"/>
<path id="Vector_2" d="M10.0005 13.5001C9.74055 13.5001 9.49055 13.4001 9.29055 13.2101L5.29055 9.21007C4.90055 8.82007 4.90055 8.19007 5.29055 7.80007C5.68055 7.41007 6.31055 7.41007 6.70055 7.80007L9.99055 11.0901L13.2805 7.80007C13.6705 7.41007 14.3005 7.41007 14.6905 7.80007C15.0805 8.19007 15.0805 8.82007 14.6905 9.21007L10.6905 13.2101C10.4905 13.4101 10.2405 13.5001 9.98055 13.5001H10.0005Z" fill="#121514"/>
</g>
</svg>
