<svg width="20" height="20" viewBox="0 0 20 20" fill="none" xmlns="http://www.w3.org/2000/svg">
<g id="benefit-world">
<path id="World" d="M17.0615 2.93C15.3523 1.22 13.1334 0.21 10.7446 0.04C10.6047 0 10.4648 0 10.3248 0.02C10.2149 0.02 10.1049 0 9.995 0C9.88506 0 9.77511 0.01 9.66517 0.02C9.52524 0 9.38531 0 9.24538 0.04C6.85657 0.22 4.63768 1.22 2.92854 2.93C1.03948 4.82 0 7.33 0 10C0 11.32 0.25987 12.61 0.75962 13.83C1.25937 15.05 1.98901 16.14 2.92854 17.07C3.86807 18 4.94753 18.73 6.16692 19.24C7.14643 19.65 8.17591 19.88 9.23538 19.96C9.32534 19.98 9.4053 20 9.49525 20C9.53523 20 9.58521 19.99 9.62519 19.98C9.74513 19.98 9.86507 20 9.995 20C10.1249 20 10.2449 19.99 10.3648 19.98C10.4048 19.98 10.4548 20 10.4948 20C10.5847 20 10.6747 19.99 10.7546 19.96C11.8041 19.88 12.8336 19.64 13.8231 19.24C15.0425 18.74 16.1319 18.01 17.0715 17.07C18.001 16.14 18.7306 15.04 19.2404 13.83C19.7401 12.61 20 11.32 20 10C20 7.33 18.9605 4.82 17.0715 2.93H17.0615ZM13.953 12C14.023 11.34 14.073 10.67 14.073 10C14.073 9.33 14.023 8.66 13.953 8H17.7311C17.901 8.65 17.991 9.32 17.991 10C17.991 10.68 17.901 11.35 17.7311 12H13.953ZM8.04598 12C7.96602 11.34 7.91604 10.67 7.91604 10C7.91604 9.33 7.96602 8.66 8.04598 8H11.934C12.014 8.66 12.064 9.33 12.064 10C12.064 10.67 12.014 11.34 11.934 12H8.04598ZM11.5542 14C11.2044 15.35 10.6847 16.65 9.995 17.87C9.30535 16.65 8.78561 15.35 8.43578 14H11.5542ZM2.25887 12C2.08896 11.35 1.999 10.68 1.999 10C1.999 9.32 2.08896 8.65 2.25887 8H6.03698C5.96702 8.66 5.91704 9.33 5.91704 10C5.91704 10.67 5.96702 11.34 6.03698 12H2.25887ZM8.43578 6C8.78561 4.65 9.30535 3.35 9.995 2.13C10.6847 3.35 11.2044 4.65 11.5542 6H8.43578ZM16.9115 6H13.6132C13.3233 4.74 12.9035 3.52 12.3538 2.35C13.5832 2.73 14.7126 3.4 15.6422 4.34C16.1419 4.84 16.5617 5.4 16.9115 6ZM7.63618 2.35C7.08646 3.52 6.66667 4.74 6.37681 6H3.07846C3.42829 5.4 3.83808 4.84 4.34783 4.34C5.28736 3.4 6.4068 2.73 7.63618 2.35ZM4.33783 15.66C3.83808 15.16 3.42829 14.6 3.07846 14H6.37681C6.66667 15.25 7.08646 16.47 7.62619 17.64C7.3963 17.57 7.15642 17.49 6.93653 17.39C5.95702 16.99 5.08746 16.4 4.33783 15.66ZM13.0535 17.39C12.8236 17.48 12.5937 17.57 12.3638 17.64C12.9135 16.47 13.3333 15.25 13.6132 14H16.9115C16.5617 14.6 16.1519 15.16 15.6522 15.66C14.9025 16.41 14.033 16.99 13.0535 17.39Z" fill="#121514"/>
</g>
</svg>
