<svg width="20" height="20" viewBox="0 0 20 20" fill="none" xmlns="http://www.w3.org/2000/svg">
<g id="benefit-perfection">
<path id="Vector" d="M19.0397 5.72334C18.2235 3.99343 16.9309 2.54078 15.3025 1.52157C13.0376 0.107965 10.3548 -0.341109 7.754 0.26026C5.15323 0.857724 2.93905 2.43534 1.52541 4.70024C0.107872 6.96513 -0.341211 9.64396 0.26017 12.2486C0.861551 14.8493 2.4392 17.0634 4.70024 18.4771C6.29351 19.4728 8.12108 20 9.99161 20H10.1127C11.9754 19.9766 13.7873 19.4377 15.3572 18.4458C15.8141 18.1568 15.9468 17.5555 15.6579 17.0986C15.3689 16.6417 14.7675 16.5089 14.3106 16.7979C13.0493 17.5984 11.5888 18.0319 10.0892 18.0514C8.55064 18.0709 7.04719 17.6453 5.73508 16.8291C3.91141 15.6889 2.64226 13.9082 2.16194 11.8151C1.68162 9.72206 2.04088 7.5665 3.18116 5.74287C5.53202 1.98236 10.5071 0.834294 14.2677 3.1851C15.5798 4.00515 16.6185 5.17274 17.2746 6.56292C17.915 7.91795 18.1649 9.42137 17.997 10.9053C17.9384 11.4403 18.3211 11.9245 18.86 11.983C19.395 12.0416 19.8793 11.6589 19.9378 11.12C20.1448 9.27298 19.8324 7.4064 19.0397 5.72334Z" fill="#121514"/>
<path id="Vector_2" d="M13.229 6.60977L8.51948 11.3192L6.77391 9.57366C6.39121 9.19097 5.77421 9.19097 5.39152 9.57366C5.00882 9.95635 5.00882 10.5733 5.39152 10.956L7.82828 13.3927C8.01963 13.5841 8.26955 13.6778 8.51948 13.6778C8.7694 13.6778 9.01933 13.5841 9.21068 13.3927L14.6075 7.99214C14.9902 7.60945 14.9902 6.99246 14.6075 6.60977C14.2248 6.23099 13.6078 6.23099 13.229 6.60977Z" fill="#121514"/>
</g>
</svg>
