<svg width="20" height="20" viewBox="0 0 20 20" fill="none" xmlns="http://www.w3.org/2000/svg">
<g id="benefit-innovation">
<path id="Vector" d="M10.358 17.5041C8.82556 17.6796 7.2836 17.3774 5.92249 16.6267C4.56138 15.8759 3.46678 14.7353 2.75291 13.3216C2.04856 11.9079 1.77253 10.3382 1.97241 8.75883C2.1723 7.18916 2.81954 5.72674 3.85703 4.54705C4.885 3.36736 6.22708 2.53866 7.74048 2.16818C9.24436 1.7977 10.8054 1.89519 12.2521 2.46066C13.6989 3.02613 14.9268 4.02058 15.8024 5.32701C16.6781 6.63344 17.1445 8.16411 17.1445 9.75327C17.1445 10.2895 17.5728 10.7282 18.0963 10.7282C18.6199 10.7282 19.0482 10.2895 19.0482 9.75327C19.0482 7.77413 18.4676 5.86323 17.373 4.22532C16.2784 2.59715 14.7364 1.35897 12.9279 0.647259C11.1195 -0.0644531 9.16822 -0.191196 7.29312 0.276779C5.4085 0.744754 3.73329 1.76845 2.43881 3.25037C1.14432 4.72254 0.325754 6.54569 0.0782792 8.51509C-0.169196 10.4845 0.173462 12.4539 1.05866 14.2185C1.94386 15.9832 3.31449 17.4066 5.01826 18.3426C6.40792 19.1128 7.94988 19.5028 9.51087 19.5028C9.86305 19.5028 10.2152 19.4833 10.5674 19.4443C11.0909 19.3858 11.4621 18.908 11.405 18.3718C11.3479 17.8356 10.872 17.4554 10.358 17.5139V17.5041Z" fill="#121514"/>
<path id="Vector_2" d="M7.62631 7.80338C7.62631 7.26716 7.19799 6.82843 6.67448 6.82843C6.15098 6.82843 5.72266 7.26716 5.72266 7.80338C5.72266 8.3396 6.15098 8.77833 6.67448 8.77833C7.19799 8.77833 7.62631 8.3396 7.62631 7.80338Z" fill="#121514"/>
<path id="Vector_3" d="M13.3372 7.80338C13.3372 7.26716 12.9089 6.82843 12.3854 6.82843C11.8619 6.82843 11.4336 7.26716 11.4336 7.80338C11.4336 8.3396 11.8619 8.77833 12.3854 8.77833C12.9089 8.77833 13.3372 8.3396 13.3372 7.80338Z" fill="#121514"/>
<path id="Vector_4" d="M8.04552 14.3744C8.52143 14.5499 9.00686 14.6377 9.51133 14.6377C9.62555 14.6377 9.74929 14.6377 9.86351 14.6279C10.387 14.5889 10.7773 14.1112 10.7392 13.575C10.7011 13.0388 10.2442 12.639 9.71121 12.678C9.36856 12.7073 9.00686 12.6585 8.68324 12.5415C8.3501 12.4245 8.05504 12.2296 7.80756 11.9858C7.42683 11.6153 6.82718 11.6251 6.46549 12.0151C6.10379 12.4051 6.11331 13.0193 6.49404 13.3897C6.9414 13.8285 7.4649 14.16 8.05504 14.3744H8.04552Z" fill="#121514"/>
<path id="Vector_5" d="M19.2672 13.4776C19.0292 13.2241 18.7532 13.0291 18.4486 12.8926C18.144 12.7561 17.8109 12.6879 17.4682 12.6879C17.1256 12.6879 16.7924 12.7561 16.4879 12.8926C16.3832 12.9414 16.288 12.9901 16.1833 13.0486C16.0881 12.9901 15.9929 12.9414 15.8882 12.8926C15.5741 12.7561 15.2505 12.6879 14.9174 12.6879C14.5842 12.6879 14.2416 12.7561 13.937 12.8926C13.6229 13.0291 13.3468 13.2241 13.1089 13.4678C12.633 13.965 12.376 14.628 12.376 15.3202C12.376 16.0124 12.633 16.6754 13.1089 17.1824L15.498 19.7075C15.6788 19.8927 15.9263 20 16.1833 20C16.4403 20 16.6877 19.8927 16.8686 19.7075L19.2672 17.1921C19.7431 16.6949 20.0001 16.0319 20.0001 15.3397C20.0001 14.6475 19.7431 13.9845 19.2767 13.4873L19.2672 13.4776ZM17.8966 15.8174L16.1833 17.6114L14.4795 15.8077C14.3558 15.6712 14.2796 15.4957 14.2796 15.3007C14.2796 15.1057 14.3463 14.94 14.4795 14.8035C14.5366 14.745 14.6032 14.6963 14.6794 14.667C14.7555 14.6378 14.8317 14.6183 14.9078 14.6183C14.9745 14.5988 15.0696 14.6378 15.1458 14.667C15.2219 14.6963 15.2886 14.745 15.3457 14.8133L15.5075 14.979C15.8692 15.3495 16.5069 15.3495 16.8686 14.979L17.0304 14.8133C17.0875 14.7548 17.1541 14.706 17.2303 14.6768C17.3826 14.6085 17.5444 14.6183 17.6967 14.6768C17.7728 14.706 17.8395 14.7548 17.8966 14.8133C18.0203 14.9497 18.0965 15.1252 18.0965 15.3105C18.0965 15.4957 18.0298 15.6712 17.8966 15.8077V15.8174Z" fill="#121514"/>
</g>
</svg>
