<svg width="14" height="14" viewBox="0 0 14 14" fill="none" xmlns="http://www.w3.org/2000/svg">
<g id="close-plus">
<path id="Plus" fill-rule="evenodd" clip-rule="evenodd" d="M6.0488 0.95119C6.0488 0.425753 6.47456 0 6.99999 0C7.52543 0 7.95118 0.425753 7.95118 0.95119V6.04878H13.0488C13.5742 6.04878 14 6.47453 14 6.99997C14 7.52541 13.5742 7.95116 13.0488 7.95116H7.95118V13.0488C7.95118 13.5742 7.52543 14 6.99999 14C6.47456 14 6.0488 13.5742 6.0488 13.0488V7.95116H0.95119C0.425753 7.95116 0 7.52541 0 6.99997C0 6.47453 0.425753 6.04878 0.95119 6.04878H6.0488V0.95119Z" fill="#727272"/>
</g>
</svg>
