<svg width="20" height="20" viewBox="0 0 20 20" fill="none" xmlns="http://www.w3.org/2000/svg">
<g id="close-grey">
<path id="Vector" d="M11.7829 10.0154L19.6491 17.8816C19.8768 18.1174 20.0028 18.4331 20 18.7609C19.9971 19.0886 19.8656 19.4021 19.6339 19.6339C19.4021 19.8656 19.0886 19.9971 18.7609 20C18.4331 20.0028 18.1174 19.8768 17.8816 19.6491L10.0154 11.7829L2.14911 19.6491C1.91336 19.8768 1.59761 20.0028 1.26986 20C0.942113 19.9971 0.628597 19.8656 0.396837 19.6339C0.165077 19.4021 0.033616 19.0886 0.030768 18.7609C0.02792 18.4331 0.153913 18.1174 0.381611 17.8816L8.24786 10.0154L0.381611 2.14911C0.262223 2.0338 0.166994 1.89587 0.101483 1.74337C0.0359717 1.59086 0.00148947 1.42684 4.71955e-05 1.26086C-0.00139507 1.09489 0.0302324 0.930288 0.0930835 0.776669C0.155935 0.623049 0.248751 0.483482 0.366117 0.366117C0.483483 0.248751 0.623047 0.155933 0.776668 0.0930824C0.930288 0.0302315 1.09489 -0.00139618 1.26086 4.57764e-05C1.42684 0.00148964 1.59086 0.0359726 1.74337 0.101484C1.89587 0.166996 2.0338 0.262222 2.14911 0.381609L10.0154 8.24786L17.8816 0.381609C18.1174 0.153912 18.4331 0.0279179 18.7609 0.0307674C19.0886 0.0336151 19.4021 0.165077 19.6339 0.396837C19.8656 0.628597 19.9971 0.942114 20 1.26986C20.0028 1.5976 19.8768 1.91336 19.6491 2.14911L11.7829 10.0154Z" fill="#727272"/>
</g>
</svg>
