<svg width="24" height="24" viewBox="0 0 24 24" fill="none" xmlns="http://www.w3.org/2000/svg">
<circle cx="12" cy="12" r="11" stroke="white" stroke-width="1.5"/>
<path d="M8 9C8 7.89543 8.89543 7 10 7C11.1046 7 12 7.89543 12 9C12 10.1046 11.1046 11 10 11C8.89543 11 8 10.1046 8 9Z" fill="white"/>
<path d="M5 17V16C5 14.3431 6.34315 13 8 13H12C13.6569 13 15 14.3431 15 16V17" stroke="white" stroke-width="1.5" stroke-linecap="round"/>
<path d="M15 9C15 8.44772 15.4477 8 16 8C16.5523 8 17 8.44772 17 9C17 9.55228 16.5523 10 16 10C15.4477 10 15 9.55228 15 9Z" fill="white"/>
<path d="M14 14.5C14 13.6716 14.6716 13 15.5 13H16.5C17.3284 13 18 13.6716 18 14.5V17" stroke="white" stroke-width="1.5" stroke-linecap="round"/>
</svg>
