<?xml version="1.0" encoding="UTF-8"?>
<svg xmlns="http://www.w3.org/2000/svg" xmlns:xlink="http://www.w3.org/1999/xlink" width="3277.67" height="3302.84" viewBox="0 0 3277.67 3302.84">
<defs>
<clipPath id="clip-0">

</clipPath>
<clipPath id="clip-1">
<path clip-rule="evenodd" d="M 2376.21875 1986.300781 L 2334.359375 2058.800781 L 2481.871094 2254.300781 L 2629.371094 2058.808594 L 2587.929688 1987.019531 C 2555.039062 1998.328125 2519.769531 2004.480469 2483.089844 2004.480469 C 2445.660156 2004.480469 2409.691406 1998.070312 2376.21875 1986.300781 Z M 2377.121094 1863.730469 C 2378.441406 1864.359375 2379.75 1865.050781 2381.039062 1865.789062 C 2381.878906 1866.28125 2382.710938 1866.789062 2383.511719 1867.308594 C 2413.199219 1883.25 2447.109375 1892.308594 2483.089844 1892.308594 C 2518.488281 1892.308594 2551.871094 1883.539062 2581.199219 1868.078125 C 2581.890625 1867.648438 2582.578125 1867.230469 2583.289062 1866.820312 C 2584.730469 1865.980469 2586.210938 1865.21875 2587.699219 1864.53125 C 2651.308594 1828.109375 2694.269531 1759.539062 2694.269531 1681.128906 L 2694.269531 1584.820312 C 2687.570312 1490.839844 2664.171875 1428.53125 2629.941406 1413.761719 C 2588.730469 1395.980469 2517.421875 1437.75 2489.351562 1460.78125 C 2471.871094 1475.101562 2447.390625 1477.671875 2427.421875 1467.101562 C 2394.929688 1449.921875 2350.378906 1432.898438 2322.539062 1449.320312 C 2285.828125 1471.011719 2272.628906 1547.929688 2271.921875 1582.398438 L 2271.921875 1681.128906 C 2271.921875 1758.96875 2314.261719 1827.109375 2377.121094 1863.730469 Z M 1430.078125 660.878906 C 1430.078125 776 1523.710938 869.628906 1638.828125 869.628906 C 1753.949219 869.628906 1847.589844 776 1847.589844 660.878906 C 1847.589844 545.761719 1753.949219 452.121094 1638.828125 452.121094 C 1523.710938 452.121094 1430.078125 545.75 1430.078125 660.878906 Z M 1638.828125 926.039062 C 1785.03125 926.039062 1904 807.070312 1904 660.878906 C 1904 514.679688 1785.03125 395.710938 1638.828125 395.710938 C 1492.640625 395.710938 1373.671875 514.679688 1373.671875 660.871094 C 1373.671875 807.070312 1492.640625 926.039062 1638.828125 926.039062 Z M 3221.578125 3106.75 L 56.085938 3106.75 C 25.109375 3106.75 0 3081.640625 0 3050.660156 L 0 2825.871094 C 0 2794.890625 25.105469 2769.78125 56.085938 2769.78125 L 3221.578125 2769.78125 C 3252.550781 2769.78125 3277.671875 2794.890625 3277.671875 2825.871094 L 3277.671875 3050.671875 C 3277.671875 3081.640625 3252.550781 3106.75 3221.578125 3106.75 Z M 455.503906 3302.839844 L 229.121094 3302.839844 C 198.148438 3302.839844 173.035156 3277.730469 173.035156 3246.75 L 173.035156 3162.511719 L 511.589844 3162.511719 L 511.589844 3246.75 C 511.589844 3277.730469 486.480469 3302.839844 455.503906 3302.839844 Z M 3048.539062 3302.839844 L 2822.160156 3302.839844 C 2791.179688 3302.839844 2766.070312 3277.730469 2766.070312 3246.75 L 2766.070312 3162.511719 L 3104.621094 3162.511719 L 3104.621094 3246.75 C 3104.621094 3277.730469 3079.519531 3302.839844 3048.539062 3302.839844 Z M 999.996094 1932.640625 L 1042.839844 2006.851562 L 1089.96875 2006.851562 C 1331.238281 2006.851562 1527.53125 2203.128906 1527.53125 2444.398438 L 1527.53125 2714.011719 L 1236.789062 2714.011719 L 1236.789062 2474.589844 C 1236.789062 2459 1224.171875 2446.390625 1208.578125 2446.390625 C 1192.988281 2446.390625 1180.378906 2459 1180.378906 2474.589844 L 1180.378906 2714.011719 L 411.222656 2714.011719 L 411.222656 2474.589844 C 411.222656 2459 398.609375 2446.390625 383.019531 2446.390625 C 367.433594 2446.390625 354.816406 2459.011719 354.816406 2474.589844 L 354.816406 2714.011719 L 64.085938 2714.011719 L 64.085938 2444.398438 C 64.085938 2203.128906 260.371094 2006.851562 501.636719 2006.851562 L 548.769531 2006.851562 L 592.394531 1931.28125 C 519.980469 1871.941406 473.6875 1781.839844 473.6875 1681.121094 L 473.6875 1598.859375 C 408.589844 1496.328125 387.945312 1402.558594 412.328125 1319.921875 C 435.777344 1240.46875 495.007812 1195.691406 526.894531 1176.609375 C 567.046875 1097.058594 642.46875 1046.121094 738.488281 1033.660156 L 738.488281 660.871094 C 738.488281 629.898438 763.597656 604.789062 794.574219 604.789062 L 1135.121094 604.789062 L 1019.53125 500.558594 C 999.875 482.839844 995.292969 453.78125 1008.519531 430.859375 L 1124.480469 230.019531 C 1137.71875 207.101562 1165.171875 196.539062 1190.351562 204.710938 L 1370.269531 263.019531 C 1388.921875 250.410156 1408.398438 239.140625 1428.570312 229.289062 L 1468.03125 44.378906 C 1473.550781 18.5 1496.421875 0 1522.878906 0 L 1754.800781 0 C 1781.269531 0 1804.128906 18.5 1809.648438 44.390625 L 1849.101562 229.289062 C 1869.269531 239.140625 1888.75 250.410156 1907.390625 263.011719 L 2087.320312 204.699219 C 2112.5 196.53125 2139.941406 207.089844 2153.179688 230.011719 L 2269.128906 430.859375 C 2282.371094 453.78125 2277.78125 482.828125 2258.121094 500.558594 L 2142.539062 604.789062 L 2483.089844 604.789062 C 2514.070312 604.789062 2539.179688 629.898438 2539.179688 660.878906 L 2539.179688 1036.441406 C 2661.289062 1057.058594 2776.839844 1131.378906 2834.128906 1232.371094 C 2897.230469 1343.628906 2887.269531 1473.511719 2806.441406 1599.738281 L 2806.441406 1681.140625 C 2806.429688 1782.621094 2759.429688 1873.320312 2686.050781 1932.640625 L 2728.898438 2006.851562 L 2776.039062 2006.851562 C 3017.308594 2006.851562 3213.601562 2203.128906 3213.601562 2444.398438 L 3213.601562 2714.011719 L 2922.859375 2714.011719 L 2922.859375 2474.589844 C 2922.859375 2459 2910.238281 2446.390625 2894.648438 2446.390625 C 2879.070312 2446.390625 2866.449219 2459 2866.449219 2474.589844 L 2866.449219 2714.011719 L 2097.28125 2714.011719 L 2097.28125 2474.589844 C 2097.28125 2459 2084.671875 2446.390625 2069.078125 2446.390625 C 2053.488281 2446.390625 2040.878906 2459.011719 2040.878906 2474.589844 L 2040.878906 2714.011719 L 1750.140625 2714.011719 L 1750.140625 2444.398438 C 1750.140625 2203.128906 1946.421875 2006.851562 2187.699219 2006.851562 L 2234.839844 2006.851562 L 2278.460938 1931.300781 C 2206.03125 1871.949219 2159.738281 1781.851562 2159.738281 1681.128906 L 2159.738281 1598.871094 C 2094.648438 1496.328125 2074 1402.558594 2098.390625 1319.929688 C 2121.839844 1240.46875 2181.058594 1195.691406 2212.949219 1176.609375 C 2253.441406 1096.390625 2329.808594 1045.261719 2427 1033.351562 L 2427 716.960938 L 2142.539062 716.960938 L 2258.128906 821.191406 C 2277.78125 838.921875 2282.378906 867.96875 2269.140625 890.890625 L 2153.179688 1091.730469 C 2139.949219 1114.648438 2112.511719 1125.210938 2087.328125 1117.050781 L 1907.421875 1058.738281 C 1888.78125 1071.351562 1869.289062 1082.628906 1849.089844 1092.480469 L 1809.660156 1277.359375 C 1804.121094 1303.238281 1781.25 1321.738281 1754.789062 1321.738281 L 1522.871094 1321.738281 C 1496.410156 1321.738281 1473.539062 1303.238281 1468.019531 1277.359375 L 1428.558594 1092.460938 C 1408.390625 1082.621094 1388.910156 1071.339844 1370.269531 1058.730469 L 1190.339844 1117.050781 C 1165.171875 1125.199219 1137.710938 1114.648438 1124.480469 1091.730469 L 1008.519531 890.890625 C 995.28125 867.96875 999.875 838.910156 1019.53125 821.191406 L 1135.109375 716.960938 L 850.664062 716.960938 L 850.664062 1036.03125 C 973.675781 1056.058594 1090.398438 1130.699219 1148.070312 1232.371094 C 1211.179688 1343.621094 1201.210938 1473.511719 1120.390625 1599.738281 L 1120.390625 1681.128906 C 1120.378906 1782.621094 1073.371094 1873.320312 999.996094 1932.640625 Z M 895.164062 1868.070312 C 895.839844 1867.640625 896.527344 1867.21875 897.230469 1866.820312 C 898.667969 1865.980469 900.132812 1865.230469 901.613281 1864.539062 C 965.242188 1828.121094 1008.210938 1759.550781 1008.210938 1681.121094 L 1008.210938 1584.820312 C 1001.511719 1490.828125 978.109375 1428.519531 943.890625 1413.761719 C 902.679688 1395.96875 831.367188 1437.75 803.289062 1460.78125 C 785.816406 1475.101562 761.335938 1477.671875 741.359375 1467.101562 C 708.875 1449.921875 664.324219 1432.898438 636.484375 1449.320312 C 599.773438 1471.011719 586.578125 1547.929688 585.863281 1582.398438 L 585.859375 1681.121094 C 585.859375 1758.988281 628.226562 1827.140625 691.105469 1863.75 C 692.414062 1864.378906 693.703125 1865.058594 694.976562 1865.789062 C 695.800781 1866.269531 696.605469 1866.769531 697.402344 1867.28125 C 727.097656 1883.238281 761.027344 1892.300781 797.039062 1892.300781 C 832.441406 1892.300781 865.828125 1883.53125 895.164062 1868.070312 Z M 943.308594 2058.800781 L 901.867188 1987.019531 C 868.980469 1998.320312 833.714844 2004.480469 797.039062 2004.480469 C 759.597656 2004.480469 723.632812 1998.058594 690.160156 1986.300781 L 648.296875 2058.800781 L 795.800781 2254.300781 L 943.308594 2058.800781 "/>
</clipPath>
<linearGradient id="linear-pattern-0" gradientUnits="userSpaceOnUse" x1="0" y1="0" x2="1" y2="0" gradientTransform="matrix(3277.67, 0, 0, 3277.67, 0, 1651.42)">
<stop offset="0" stop-color="rgb(11.372375%, 37.254333%, 37.646484%)" stop-opacity="1"/>
<stop offset="0.0078125" stop-color="rgb(11.326599%, 37.156677%, 37.547302%)" stop-opacity="1"/>
<stop offset="0.015625" stop-color="rgb(11.238098%, 36.964417%, 37.35199%)" stop-opacity="1"/>
<stop offset="0.0234375" stop-color="rgb(11.149597%, 36.77063%, 37.155151%)" stop-opacity="1"/>
<stop offset="0.03125" stop-color="rgb(11.061096%, 36.578369%, 36.959839%)" stop-opacity="1"/>
<stop offset="0.0390625" stop-color="rgb(10.971069%, 36.384583%, 36.763%)" stop-opacity="1"/>
<stop offset="0.046875" stop-color="rgb(10.882568%, 36.192322%, 36.567688%)" stop-opacity="1"/>
<stop offset="0.0546875" stop-color="rgb(10.794067%, 35.998535%, 36.37085%)" stop-opacity="1"/>
<stop offset="0.0625" stop-color="rgb(10.705566%, 35.806274%, 36.175537%)" stop-opacity="1"/>
<stop offset="0.0703125" stop-color="rgb(10.617065%, 35.612488%, 35.978699%)" stop-opacity="1"/>
<stop offset="0.078125" stop-color="rgb(10.527039%, 35.420227%, 35.783386%)" stop-opacity="1"/>
<stop offset="0.0859375" stop-color="rgb(10.438538%, 35.22644%, 35.586548%)" stop-opacity="1"/>
<stop offset="0.09375" stop-color="rgb(10.350037%, 35.03418%, 35.391235%)" stop-opacity="1"/>
<stop offset="0.101562" stop-color="rgb(10.261536%, 34.840393%, 35.194397%)" stop-opacity="1"/>
<stop offset="0.109375" stop-color="rgb(10.171509%, 34.648132%, 34.999084%)" stop-opacity="1"/>
<stop offset="0.117188" stop-color="rgb(10.083008%, 34.454346%, 34.802246%)" stop-opacity="1"/>
<stop offset="0.125" stop-color="rgb(9.994507%, 34.262085%, 34.606934%)" stop-opacity="1"/>
<stop offset="0.132812" stop-color="rgb(9.906006%, 34.068298%, 34.410095%)" stop-opacity="1"/>
<stop offset="0.140625" stop-color="rgb(9.815979%, 33.876038%, 34.214783%)" stop-opacity="1"/>
<stop offset="0.148438" stop-color="rgb(9.727478%, 33.682251%, 34.017944%)" stop-opacity="1"/>
<stop offset="0.15625" stop-color="rgb(9.638977%, 33.48999%, 33.822632%)" stop-opacity="1"/>
<stop offset="0.164062" stop-color="rgb(9.550476%, 33.296204%, 33.625793%)" stop-opacity="1"/>
<stop offset="0.171875" stop-color="rgb(9.461975%, 33.103943%, 33.430481%)" stop-opacity="1"/>
<stop offset="0.179688" stop-color="rgb(9.371948%, 32.911682%, 33.233643%)" stop-opacity="1"/>
<stop offset="0.1875" stop-color="rgb(9.283447%, 32.717896%, 33.03833%)" stop-opacity="1"/>
<stop offset="0.195312" stop-color="rgb(9.194946%, 32.525635%, 32.841492%)" stop-opacity="1"/>
<stop offset="0.203125" stop-color="rgb(9.106445%, 32.331848%, 32.646179%)" stop-opacity="1"/>
<stop offset="0.210938" stop-color="rgb(9.016418%, 32.139587%, 32.449341%)" stop-opacity="1"/>
<stop offset="0.21875" stop-color="rgb(8.927917%, 31.945801%, 32.254028%)" stop-opacity="1"/>
<stop offset="0.226562" stop-color="rgb(8.839417%, 31.75354%, 32.05719%)" stop-opacity="1"/>
<stop offset="0.234375" stop-color="rgb(8.750916%, 31.559753%, 31.861877%)" stop-opacity="1"/>
<stop offset="0.242188" stop-color="rgb(8.662415%, 31.367493%, 31.665039%)" stop-opacity="1"/>
<stop offset="0.25" stop-color="rgb(8.572388%, 31.173706%, 31.469727%)" stop-opacity="1"/>
<stop offset="0.257812" stop-color="rgb(8.483887%, 30.981445%, 31.272888%)" stop-opacity="1"/>
<stop offset="0.265625" stop-color="rgb(8.395386%, 30.787659%, 31.077576%)" stop-opacity="1"/>
<stop offset="0.273438" stop-color="rgb(8.306885%, 30.595398%, 30.880737%)" stop-opacity="1"/>
<stop offset="0.28125" stop-color="rgb(8.216858%, 30.401611%, 30.685425%)" stop-opacity="1"/>
<stop offset="0.289062" stop-color="rgb(8.128357%, 30.209351%, 30.488586%)" stop-opacity="1"/>
<stop offset="0.296875" stop-color="rgb(8.039856%, 30.015564%, 30.293274%)" stop-opacity="1"/>
<stop offset="0.304688" stop-color="rgb(7.951355%, 29.823303%, 30.096436%)" stop-opacity="1"/>
<stop offset="0.3125" stop-color="rgb(7.861328%, 29.629517%, 29.901123%)" stop-opacity="1"/>
<stop offset="0.320312" stop-color="rgb(7.772827%, 29.437256%, 29.704285%)" stop-opacity="1"/>
<stop offset="0.328125" stop-color="rgb(7.684326%, 29.243469%, 29.508972%)" stop-opacity="1"/>
<stop offset="0.335938" stop-color="rgb(7.595825%, 29.051208%, 29.312134%)" stop-opacity="1"/>
<stop offset="0.34375" stop-color="rgb(7.507324%, 28.857422%, 29.116821%)" stop-opacity="1"/>
<stop offset="0.351562" stop-color="rgb(7.417297%, 28.665161%, 28.919983%)" stop-opacity="1"/>
<stop offset="0.359375" stop-color="rgb(7.328796%, 28.471375%, 28.72467%)" stop-opacity="1"/>
<stop offset="0.367188" stop-color="rgb(7.240295%, 28.279114%, 28.527832%)" stop-opacity="1"/>
<stop offset="0.375" stop-color="rgb(7.151794%, 28.085327%, 28.33252%)" stop-opacity="1"/>
<stop offset="0.382812" stop-color="rgb(7.061768%, 27.893066%, 28.135681%)" stop-opacity="1"/>
<stop offset="0.390625" stop-color="rgb(6.973267%, 27.69928%, 27.940369%)" stop-opacity="1"/>
<stop offset="0.398438" stop-color="rgb(6.884766%, 27.507019%, 27.74353%)" stop-opacity="1"/>
<stop offset="0.40625" stop-color="rgb(6.796265%, 27.313232%, 27.548218%)" stop-opacity="1"/>
<stop offset="0.414062" stop-color="rgb(6.707764%, 27.120972%, 27.351379%)" stop-opacity="1"/>
<stop offset="0.421875" stop-color="rgb(6.617737%, 26.927185%, 27.156067%)" stop-opacity="1"/>
<stop offset="0.429688" stop-color="rgb(6.529236%, 26.734924%, 26.959229%)" stop-opacity="1"/>
<stop offset="0.4375" stop-color="rgb(6.440735%, 26.541138%, 26.763916%)" stop-opacity="1"/>
<stop offset="0.445312" stop-color="rgb(6.352234%, 26.348877%, 26.567078%)" stop-opacity="1"/>
<stop offset="0.453125" stop-color="rgb(6.262207%, 26.15509%, 26.371765%)" stop-opacity="1"/>
<stop offset="0.460938" stop-color="rgb(6.173706%, 25.96283%, 26.174927%)" stop-opacity="1"/>
<stop offset="0.46875" stop-color="rgb(6.085205%, 25.769043%, 25.979614%)" stop-opacity="1"/>
<stop offset="0.476562" stop-color="rgb(5.996704%, 25.576782%, 25.782776%)" stop-opacity="1"/>
<stop offset="0.484375" stop-color="rgb(5.906677%, 25.382996%, 25.587463%)" stop-opacity="1"/>
<stop offset="0.492188" stop-color="rgb(5.818176%, 25.190735%, 25.390625%)" stop-opacity="1"/>
<stop offset="0.5" stop-color="rgb(5.729675%, 24.996948%, 25.195312%)" stop-opacity="1"/>
<stop offset="0.507812" stop-color="rgb(5.641174%, 24.804688%, 24.998474%)" stop-opacity="1"/>
<stop offset="0.515625" stop-color="rgb(5.552673%, 24.610901%, 24.803162%)" stop-opacity="1"/>
<stop offset="0.523438" stop-color="rgb(5.462646%, 24.41864%, 24.606323%)" stop-opacity="1"/>
<stop offset="0.53125" stop-color="rgb(5.374146%, 24.224854%, 24.411011%)" stop-opacity="1"/>
<stop offset="0.539062" stop-color="rgb(5.285645%, 24.032593%, 24.214172%)" stop-opacity="1"/>
<stop offset="0.546875" stop-color="rgb(5.197144%, 23.838806%, 24.01886%)" stop-opacity="1"/>
<stop offset="0.554688" stop-color="rgb(5.107117%, 23.646545%, 23.822021%)" stop-opacity="1"/>
<stop offset="0.5625" stop-color="rgb(5.018616%, 23.452759%, 23.626709%)" stop-opacity="1"/>
<stop offset="0.570312" stop-color="rgb(4.930115%, 23.260498%, 23.429871%)" stop-opacity="1"/>
<stop offset="0.578125" stop-color="rgb(4.841614%, 23.066711%, 23.234558%)" stop-opacity="1"/>
<stop offset="0.585938" stop-color="rgb(4.753113%, 22.874451%, 23.03772%)" stop-opacity="1"/>
<stop offset="0.59375" stop-color="rgb(4.663086%, 22.680664%, 22.842407%)" stop-opacity="1"/>
<stop offset="0.601562" stop-color="rgb(4.574585%, 22.488403%, 22.645569%)" stop-opacity="1"/>
<stop offset="0.609375" stop-color="rgb(4.486084%, 22.294617%, 22.450256%)" stop-opacity="1"/>
<stop offset="0.617188" stop-color="rgb(4.397583%, 22.102356%, 22.253418%)" stop-opacity="1"/>
<stop offset="0.625" stop-color="rgb(4.307556%, 21.908569%, 22.058105%)" stop-opacity="1"/>
<stop offset="0.632812" stop-color="rgb(4.219055%, 21.716309%, 21.861267%)" stop-opacity="1"/>
<stop offset="0.640625" stop-color="rgb(4.130554%, 21.522522%, 21.665955%)" stop-opacity="1"/>
<stop offset="0.648438" stop-color="rgb(4.042053%, 21.330261%, 21.469116%)" stop-opacity="1"/>
<stop offset="0.65625" stop-color="rgb(3.952026%, 21.136475%, 21.273804%)" stop-opacity="1"/>
<stop offset="0.664062" stop-color="rgb(3.863525%, 20.944214%, 21.076965%)" stop-opacity="1"/>
<stop offset="0.671875" stop-color="rgb(3.775024%, 20.750427%, 20.881653%)" stop-opacity="1"/>
<stop offset="0.679688" stop-color="rgb(3.686523%, 20.558167%, 20.684814%)" stop-opacity="1"/>
<stop offset="0.6875" stop-color="rgb(3.598022%, 20.36438%, 20.489502%)" stop-opacity="1"/>
<stop offset="0.695312" stop-color="rgb(3.507996%, 20.172119%, 20.292664%)" stop-opacity="1"/>
<stop offset="0.703125" stop-color="rgb(3.419495%, 19.978333%, 20.097351%)" stop-opacity="1"/>
<stop offset="0.710938" stop-color="rgb(3.330994%, 19.786072%, 19.900513%)" stop-opacity="1"/>
<stop offset="0.71875" stop-color="rgb(3.242493%, 19.592285%, 19.7052%)" stop-opacity="1"/>
<stop offset="0.726562" stop-color="rgb(3.152466%, 19.400024%, 19.508362%)" stop-opacity="1"/>
<stop offset="0.734375" stop-color="rgb(3.063965%, 19.206238%, 19.313049%)" stop-opacity="1"/>
<stop offset="0.742188" stop-color="rgb(2.975464%, 19.013977%, 19.116211%)" stop-opacity="1"/>
<stop offset="0.75" stop-color="rgb(2.886963%, 18.82019%, 18.920898%)" stop-opacity="1"/>
<stop offset="0.757812" stop-color="rgb(2.798462%, 18.62793%, 18.72406%)" stop-opacity="1"/>
<stop offset="0.765625" stop-color="rgb(2.708435%, 18.434143%, 18.528748%)" stop-opacity="1"/>
<stop offset="0.773438" stop-color="rgb(2.619934%, 18.241882%, 18.331909%)" stop-opacity="1"/>
<stop offset="0.78125" stop-color="rgb(2.531433%, 18.048096%, 18.136597%)" stop-opacity="1"/>
<stop offset="0.789062" stop-color="rgb(2.442932%, 17.855835%, 17.939758%)" stop-opacity="1"/>
<stop offset="0.796875" stop-color="rgb(2.352905%, 17.662048%, 17.744446%)" stop-opacity="1"/>
<stop offset="0.804688" stop-color="rgb(2.264404%, 17.469788%, 17.547607%)" stop-opacity="1"/>
<stop offset="0.8125" stop-color="rgb(2.175903%, 17.276001%, 17.352295%)" stop-opacity="1"/>
<stop offset="0.820312" stop-color="rgb(2.087402%, 17.08374%, 17.155457%)" stop-opacity="1"/>
<stop offset="0.828125" stop-color="rgb(1.997375%, 16.889954%, 16.960144%)" stop-opacity="1"/>
<stop offset="0.835938" stop-color="rgb(1.908875%, 16.697693%, 16.763306%)" stop-opacity="1"/>
<stop offset="0.84375" stop-color="rgb(1.820374%, 16.503906%, 16.567993%)" stop-opacity="1"/>
<stop offset="0.851562" stop-color="rgb(1.731873%, 16.311646%, 16.371155%)" stop-opacity="1"/>
<stop offset="0.859375" stop-color="rgb(1.643372%, 16.119385%, 16.175842%)" stop-opacity="1"/>
<stop offset="0.867188" stop-color="rgb(1.553345%, 15.925598%, 15.979004%)" stop-opacity="1"/>
<stop offset="0.875" stop-color="rgb(1.464844%, 15.733337%, 15.783691%)" stop-opacity="1"/>
<stop offset="0.882812" stop-color="rgb(1.376343%, 15.539551%, 15.586853%)" stop-opacity="1"/>
<stop offset="0.890625" stop-color="rgb(1.287842%, 15.34729%, 15.391541%)" stop-opacity="1"/>
<stop offset="0.898438" stop-color="rgb(1.197815%, 15.153503%, 15.194702%)" stop-opacity="1"/>
<stop offset="0.90625" stop-color="rgb(1.109314%, 14.961243%, 14.99939%)" stop-opacity="1"/>
<stop offset="0.914062" stop-color="rgb(1.020813%, 14.767456%, 14.802551%)" stop-opacity="1"/>
<stop offset="0.921875" stop-color="rgb(0.932312%, 14.575195%, 14.607239%)" stop-opacity="1"/>
<stop offset="0.929688" stop-color="rgb(0.843811%, 14.381409%, 14.4104%)" stop-opacity="1"/>
<stop offset="0.9375" stop-color="rgb(0.753784%, 14.189148%, 14.215088%)" stop-opacity="1"/>
<stop offset="0.945312" stop-color="rgb(0.665283%, 13.995361%, 14.01825%)" stop-opacity="1"/>
<stop offset="0.953125" stop-color="rgb(0.576782%, 13.803101%, 13.822937%)" stop-opacity="1"/>
<stop offset="0.960938" stop-color="rgb(0.488281%, 13.609314%, 13.626099%)" stop-opacity="1"/>
<stop offset="0.96875" stop-color="rgb(0.398254%, 13.417053%, 13.430786%)" stop-opacity="1"/>
<stop offset="0.976562" stop-color="rgb(0.309753%, 13.223267%, 13.233948%)" stop-opacity="1"/>
<stop offset="0.984375" stop-color="rgb(0.221252%, 13.031006%, 13.038635%)" stop-opacity="1"/>
<stop offset="0.992188" stop-color="rgb(0.132751%, 12.837219%, 12.841797%)" stop-opacity="1"/>
<stop offset="1" stop-color="rgb(0.0442505%, 12.644958%, 12.646484%)" stop-opacity="1"/>
</linearGradient>
</defs>
<g clip-path="url(#clip-0)">
<g clip-path="url(#clip-1)">
<path fill-rule="nonzero" fill="url(#linear-pattern-0)" d="M 0 0 L 0 3302.839844 L 3277.671875 3302.839844 L 3277.671875 0 Z M 0 0 "/>
</g>
</g>
</svg>
