<svg width="14" height="14" viewBox="0 0 14 14" fill="none" xmlns="http://www.w3.org/2000/svg">
<path d="M9.07815 9.84375C9.38019 9.84375 9.62505 9.5989 9.62505 9.29687C9.62505 8.99484 9.38019 8.75 9.07815 8.75C8.7761 8.75 8.53125 8.99484 8.53125 9.29687C8.53125 9.5989 8.7761 9.84375 9.07815 9.84375Z" fill="white"/>
<path d="M9.07815 1.09375C9.38019 1.09375 9.62505 0.848904 9.62505 0.546874C9.62505 0.244844 9.38019 0 9.07815 0C8.7761 0 8.53125 0.244844 8.53125 0.546874C8.53125 0.848904 8.7761 1.09375 9.07815 1.09375Z" fill="white"/>
<path d="M0.479739 13.5182C1.12106 14.1594 2.1585 14.1595 2.7999 13.5182L10.2377 6.08102C10.8774 5.4414 10.8774 4.40064 10.2377 3.76099C9.59803 3.12134 8.55723 3.12134 7.91755 3.76099L0.479739 11.1981C-0.159913 11.8378 -0.159913 12.8785 0.479739 13.5182Z" fill="white"/>
<path d="M12.9063 9.29687V8.75H13.4532C13.7553 8.75 14.0001 8.50516 14.0001 8.20312C14.0001 7.90108 13.7553 7.65625 13.4532 7.65625H12.9063V7.10937C12.9063 6.80734 12.6615 6.5625 12.3594 6.5625C12.0574 6.5625 11.8125 6.80734 11.8125 7.10937V7.65625H11.2656C10.9636 7.65625 10.7188 7.90108 10.7188 8.20312C10.7188 8.50516 10.9636 8.75 11.2656 8.75H11.8125V9.29687C11.8125 9.59891 12.0574 9.84375 12.3594 9.84375C12.6615 9.84375 12.9063 9.59891 12.9063 9.29687Z" fill="white"/>
<path d="M13.4532 1.09375H12.9063V0.546874C12.9063 0.244836 12.6615 0 12.3594 0C12.0574 0 11.8125 0.244836 11.8125 0.546874V1.09375H11.2656C10.9636 1.09375 10.7188 1.33858 10.7188 1.64062C10.7188 1.94266 10.9636 2.1875 11.2656 2.1875H11.8125V2.73437C11.8125 3.03641 12.0574 3.28125 12.3594 3.28125C12.6615 3.28125 12.9063 3.03641 12.9063 2.73437V2.1875H13.4532C13.7553 2.1875 14.0001 1.94266 14.0001 1.64062C14.0001 1.33858 13.7553 1.09375 13.4532 1.09375Z" fill="white"/>
<path d="M5.79694 0C5.49489 0 5.25005 0.244836 5.25005 0.546874V1.09375H4.70315C4.4011 1.09375 4.15625 1.33858 4.15625 1.64062C4.15625 1.94266 4.4011 2.1875 4.70315 2.1875H5.25005V2.73437C5.25005 3.03641 5.49489 3.28125 5.79694 3.28125C6.099 3.28125 6.34384 3.03641 6.34384 2.73437V2.1875H6.89074C7.19279 2.1875 7.43764 1.94266 7.43764 1.64062C7.43764 1.33858 7.19279 1.09375 6.89074 1.09375H6.34384V0.546874C6.34384 0.244836 6.099 0 5.79694 0Z" fill="white"/>
</svg>
