<svg width="14" height="14" viewBox="0 0 14 14" fill="none" xmlns="http://www.w3.org/2000/svg">
<path fill-rule="evenodd" clip-rule="evenodd" d="M13.7812 12.8837H12.8066V5.59868C12.8066 5.54358 12.7835 5.49074 12.7425 5.45179C12.7015 5.41283 12.6458 5.39094 12.5878 5.39094H10.555C10.4969 5.39094 10.4413 5.41283 10.4003 5.45179C10.3593 5.49074 10.3362 5.54358 10.3362 5.59868V12.8837H9.75898V7.21248C9.75898 7.15738 9.73594 7.10455 9.69491 7.06559C9.65389 7.02663 9.59825 7.00474 9.54023 7.00474H7.50734C7.44932 7.00474 7.39368 7.02663 7.35266 7.06559C7.31163 7.10455 7.28859 7.15738 7.28859 7.21248V12.8837H6.71136V8.82602C6.71136 8.77093 6.68831 8.71809 6.64729 8.67913C6.60627 8.64017 6.55063 8.61829 6.49261 8.61829H4.45977C4.40175 8.61829 4.34611 8.64017 4.30509 8.67913C4.26406 8.71809 4.24102 8.77093 4.24102 8.82602V12.8837H3.66379V10.4397C3.66379 10.3846 3.64074 10.3318 3.59972 10.2928C3.5587 10.2539 3.50306 10.232 3.44504 10.232H1.41222C1.35421 10.232 1.29857 10.2539 1.25754 10.2928C1.21652 10.3318 1.19347 10.3846 1.19347 10.4397V12.8837H0.21875C0.160734 12.8837 0.105094 12.9056 0.0640704 12.9446C0.0230468 12.9835 0 13.0364 0 13.0915C0 13.1466 0.0230468 13.1994 0.0640704 13.2384C0.105094 13.2773 0.160734 13.2992 0.21875 13.2992H13.7812C13.8393 13.2992 13.8949 13.2773 13.9359 13.2384C13.977 13.1994 14 13.1466 14 13.0915C14 13.0364 13.977 12.9835 13.9359 12.9446C13.8949 12.9056 13.8393 12.8837 13.7812 12.8837ZM2.09327 8.25682C2.03821 8.25668 1.98524 8.23682 1.94492 8.20121C1.9046 8.1656 1.8799 8.11686 1.87576 8.06472C1.87162 8.01258 1.88833 7.96087 1.92257 7.91992C1.95681 7.87897 2.00605 7.85178 2.06046 7.84379C5.00199 7.41827 7.70793 5.52641 9.50986 2.64287L8.46532 1.89141C8.43276 1.86799 8.40775 1.83637 8.39313 1.80015C8.37852 1.76392 8.37487 1.72453 8.38261 1.68644C8.39035 1.64835 8.40917 1.61308 8.43693 1.58462C8.4647 1.55617 8.50029 1.53566 8.5397 1.52543L11.6991 0.706555C11.7314 0.698175 11.7653 0.696956 11.7982 0.702991C11.8311 0.709026 11.8621 0.722155 11.8888 0.741364C11.9155 0.760573 11.9372 0.785349 11.9522 0.813783C11.9672 0.842216 11.9752 0.873547 11.9754 0.905359L12.0008 4.01526C12.0011 4.05405 11.9899 4.09216 11.9686 4.12526C11.9473 4.15836 11.9167 4.18512 11.8801 4.20253C11.8436 4.21993 11.8027 4.22727 11.762 4.22373C11.7213 4.22018 11.6825 4.20588 11.6499 4.18246L10.8778 3.62697C9.83946 4.90407 8.55587 5.9829 7.09486 6.80643C5.47668 7.71383 3.74918 8.21543 2.09915 8.25682H2.09327Z" fill="white"/>
</svg>
