<svg width="16" height="16" viewBox="0 0 16 16" fill="none" xmlns="http://www.w3.org/2000/svg">
<g id="fin-tech">
<path id="Vector" d="M14.8002 10.4001C14.6636 10.4014 14.5282 10.4263 14.4001 10.4738V9.20014C14.4001 8.97919 14.2211 8.80012 14.0001 8.80012H12.0001V7.20013H14.0001C14.2211 7.20013 14.4001 7.02105 14.4001 6.8001V5.52641C14.5282 5.57377 14.6636 5.5988 14.8002 5.60014C15.4629 5.60014 16.0001 5.06278 16.0001 4.40006C16.0001 3.73733 15.4629 3.2001 14.8002 3.2001C14.1373 3.2001 13.6001 3.73733 13.6001 4.40006V6.40007H12.0001V4.40006C12.0001 4.17923 11.821 4.00015 11.6002 4.00015H9.60005V2.40004H11.6001C12.2628 2.40004 12.8 1.86281 12.8 1.20008C12.8 0.537358 12.2629 0 11.6001 0C10.9373 0 10.4001 0.537236 10.4001 1.19996C10.4014 1.33656 10.4263 1.47194 10.4738 1.59999H9.20014C8.97919 1.59999 8.80012 1.77907 8.80012 2.00002V4.00003H7.20013V2.00002C7.20013 1.77907 7.02105 1.59999 6.8001 1.59999H5.52641C5.57377 1.47194 5.5988 1.33668 5.60014 1.20008C5.60002 0.537236 5.06278 0 4.40006 0C3.73721 0 3.19998 0.537236 3.19998 1.19996C3.19998 1.86269 3.73733 2.40004 4.40006 2.40004H6.40007V4.00003H4.40006C4.17911 4.00003 4.00003 4.17911 4.00003 4.39994V6.39995H2.40004V4.39994C2.40004 3.73721 1.86281 3.19998 1.20008 3.19998C0.537358 3.19998 0 3.73721 0 4.40006C0 5.06278 0.537236 5.60002 1.19996 5.60002C1.33656 5.59868 1.47194 5.57377 1.59999 5.52629V6.79998C1.59999 7.02093 1.77907 7.20001 2.00002 7.20001H4.00003V8.79999H2.00002C1.77907 8.79999 1.59999 8.97907 1.59999 9.20002V10.4737C1.47194 10.4263 1.33668 10.4013 1.20008 10.4C0.537236 10.4001 0 10.9373 0 11.6001C0 12.2629 0.537236 12.8001 1.19996 12.8001C1.86269 12.8001 2.40004 12.2628 2.40004 11.6001V9.60005H4.00003V11.6001C4.00003 11.821 4.17911 12.0001 4.39994 12.0001H6.39995V13.6001H4.39994C3.73721 13.6001 3.19998 14.1373 3.19998 14.8C3.19998 15.4628 3.73721 16 4.39994 16C5.06266 16 5.60002 15.4628 5.60002 14.8C5.59868 14.6634 5.57377 14.5282 5.52629 14.4H6.79998C7.02093 14.4 7.20001 14.2209 7.20001 14.0001V12H8.79999V14.0001C8.79999 14.2209 8.97907 14.4 9.20002 14.4H10.4737C10.4262 14.5282 10.4013 14.6634 10.4 14.8C10.4 15.4628 10.9372 16 11.5999 16C12.2627 16 12.8 15.4628 12.8 14.8C12.8 14.1373 12.2627 13.6001 11.5999 13.6001H9.60005V12.0001H11.6001C11.821 12.0001 12.0001 11.8209 12.0001 11.6001V9.60005H13.6001V11.6001C13.6001 12.2628 14.1373 12.8 14.8 12.8C15.4628 12.8 16 12.2628 16 11.6001C16 10.9373 15.4629 10.4001 14.8002 10.4001ZM10.4001 10.0001C10.4001 10.221 10.221 10.4001 10.0001 10.4001H6.00005C5.7791 10.4001 5.60002 10.221 5.60002 10.0001V6.00005C5.60002 5.7791 5.77922 5.60002 6.00005 5.60002H10.0001C10.221 5.60002 10.4001 5.77922 10.4001 6.00005V10.0001Z" fill="white"/>
<path id="Vector_2" d="M6.40027 6.40039H9.60024V9.60037H6.40027V6.40039Z" fill="white"/>
</g>
</svg>
