<svg width="14" height="14" viewBox="0 0 14 14" fill="none" xmlns="http://www.w3.org/2000/svg">
<path d="M3.62531 11.8803C2.85017 12.3254 1.97644 12.485 1.45905 12.5423C1.51633 12.0249 1.67596 11.1512 2.12057 10.3756C2.23701 10.1732 2.16705 9.91503 1.9647 9.7986C1.76047 9.68169 1.50365 9.75259 1.38769 9.95493C0.591421 11.3437 0.582031 12.9296 0.582031 12.9967C0.582031 13.2301 0.771238 13.4193 1.00458 13.4193C1.07172 13.4193 2.65768 13.4099 4.04645 12.6136C4.2488 12.4972 4.31875 12.2394 4.20232 12.0366C4.08682 11.8343 3.82907 11.7639 3.62531 11.8803Z" fill="white"/>
<path d="M13.9998 1.02582C14.005 0.748357 13.9003 0.488263 13.705 0.293427C13.5101 0.0985915 13.2284 0.00234742 12.974 0C11.804 0.0220657 8.64803 0.357746 5.66203 3.03803C5.12962 2.83099 4.32725 2.52347 3.71831 2.60188C2.82251 2.7169 1.499 3.93568 0.202722 5.23615C0.0308862 5.40845 -0.0376603 5.65258 0.0200878 5.8892C0.0773664 6.12676 0.25108 6.31315 0.48395 6.38779L2.54504 7.04977C2.38964 7.33333 2.23658 7.62347 2.08869 7.92958C1.90277 8.31455 1.98164 8.777 2.28494 9.07934L4.92022 11.7146C5.11366 11.9085 5.37282 12.0108 5.63433 12.0108C5.78222 12.0108 5.93152 11.9784 6.07049 11.9113C6.3766 11.7634 6.66675 11.6103 6.94939 11.4554L7.61185 13.516C7.6865 13.7488 7.87289 13.9225 8.11092 13.9803C8.16585 13.9934 8.22125 14 8.27665 14C8.45741 14 8.63159 13.9291 8.76399 13.7972C10.0645 12.5009 11.2833 11.1779 11.3979 10.2826C11.4772 9.66807 11.1688 8.87042 10.9617 8.33803C13.6416 5.35211 13.9778 2.19624 13.9998 1.02582ZM5.70287 11.1502C5.64325 11.1793 5.56672 11.1662 5.51789 11.1174L2.88214 8.48169C2.83378 8.43333 2.82017 8.35728 2.84974 8.29671C6.13199 1.49812 11.4411 0.874648 12.9904 0.84554H12.9942C13.05 0.84554 13.0866 0.870422 13.1082 0.892019C13.1261 0.909859 13.1566 0.949296 13.1557 1.01033C13.1256 2.55962 12.5017 7.86855 5.70287 11.1502Z" fill="white"/>
<path d="M10.8164 5.69369C11.5075 5.00214 11.5075 3.87726 10.8164 3.18571C10.1459 2.51622 8.97783 2.51622 8.30833 3.18571C7.97357 3.52045 7.78906 3.96599 7.78906 4.4397C7.78906 4.91341 7.97404 5.35895 8.30833 5.69369C8.64308 6.02843 9.08863 6.21294 9.56235 6.21294C10.0361 6.21294 10.4812 6.02843 10.8164 5.69369Z" fill="white"/>
</svg>
