<svg width="20" height="20" viewBox="0 0 20 20" fill="none" xmlns="http://www.w3.org/2000/svg">
<g id="footer-youtube">
<path id="Youtube" d="M19.2205 4.2018C18.4985 3.34819 17.1656 3 14.6201 3H5.37974C2.77594 3 1.42045 3.37065 0.701226 4.27945C0 5.16553 0 6.47109 0 8.27803V11.722C0 15.2226 0.832 17 5.37974 17H14.6201C16.8276 17 18.0508 16.6927 18.8422 15.9394C19.6537 15.1669 20 13.9057 20 11.722V8.27803C20 6.37246 19.9457 5.05919 19.2205 4.2018ZM12.8401 10.4755L8.64406 12.6568C8.55026 12.7055 8.44768 12.7297 8.34523 12.7297C8.22923 12.7297 8.11348 12.6987 8.01097 12.6369C7.81793 12.5206 7.70006 12.3125 7.70006 12.088V7.7395C7.70006 7.51541 7.81761 7.3075 8.01026 7.19109C8.20297 7.07469 8.44265 7.06673 8.64258 7.17004L12.8386 9.33724C13.0521 9.44748 13.1861 9.66669 13.1865 9.90586C13.1867 10.1452 13.0532 10.3647 12.8401 10.4755Z" fill="#121514"/>
</g>
</svg>
