<svg width="20" height="20" viewBox="0 0 20 20" fill="none" xmlns="http://www.w3.org/2000/svg">
<g id="footer-clip">
<path id="Vector" d="M18.7648 7.41974C18.4523 7.1114 17.947 7.11277 17.6362 7.42275L8.04338 16.991C6.79883 18.2257 4.77749 18.2257 3.53062 16.9894C2.28469 15.7527 2.28469 13.7474 3.53077 12.5111L13.4075 2.66115C14.1846 1.89033 15.4478 1.89033 16.2271 2.66282C17.0061 3.43567 17.0061 4.68877 16.2269 5.46185L8.04488 13.579C8.04435 13.5795 8.0439 13.5801 8.04338 13.5806C7.73167 13.8881 7.22792 13.8877 6.91685 13.5791C6.60525 13.27 6.60525 12.769 6.91685 12.4598L10.8662 8.54092C11.1778 8.23172 11.1778 7.73043 10.8661 7.4213C10.5544 7.11218 10.0492 7.11221 9.73756 7.42141L5.78822 11.3402C4.85339 12.2677 4.85339 13.7712 5.78829 14.6987C6.72316 15.6261 8.23872 15.6261 9.17362 14.6987C9.1747 14.6976 9.17556 14.6965 9.17661 14.6954L17.3554 6.58139C18.7579 5.18998 18.7579 2.93435 17.3554 1.54294C15.9527 0.152352 13.6792 0.152352 12.2775 1.54294L2.40072 11.393C0.532868 13.2461 0.532868 16.2537 2.40207 18.109C4.27251 19.9636 7.30415 19.9636 9.17347 18.1091L18.7678 8.53936C19.0786 8.22934 19.0772 7.72809 18.7648 7.41974Z" fill="#121514"/>
</g>
</svg>
