<svg width="20" height="20" viewBox="0 0 20 20" fill="none" xmlns="http://www.w3.org/2000/svg">
<g id="footer-tiktok">
<path id="T" d="M18.9903 5.00773C17.8193 5.00773 16.7388 4.62902 15.8712 3.99014C14.8761 3.25776 14.1611 2.18345 13.9086 0.945208C13.8461 0.639268 13.8124 0.323546 13.8092 0H10.464V8.92314L10.46 13.8108C10.46 15.1175 9.58833 16.2254 8.38002 16.6151C8.02935 16.7282 7.65062 16.7818 7.25627 16.7606C6.75291 16.7336 6.2812 16.5854 5.87122 16.3459C4.99875 15.8365 4.40721 14.9125 4.39118 13.8554C4.36594 12.2032 5.73416 10.8562 7.42539 10.8562C7.75923 10.8562 8.07985 10.9094 8.38002 11.006V8.56712V7.69038C8.06342 7.64461 7.7412 7.62074 7.41537 7.62074C5.56423 7.62074 3.83292 8.3719 2.59535 9.72516C1.65996 10.7478 1.09888 12.0526 1.01232 13.4207C0.898898 15.218 1.57259 16.9265 2.87909 18.187C3.07106 18.3721 3.27264 18.5438 3.48345 18.7023C4.60359 19.5438 5.97301 20 7.41537 20C7.7412 20 8.06342 19.9765 8.38002 19.9308C9.7274 19.7359 10.9706 19.1338 11.9517 18.187C13.1572 17.0239 13.8232 15.4797 13.8305 13.8362L13.8132 6.53743C14.3883 6.97052 15.0171 7.32889 15.692 7.60705C16.7416 8.03936 17.8546 8.25845 19 8.25805V5.88682V5.00694C19.0008 5.00773 18.9911 5.00773 18.9903 5.00773Z" fill="#121514"/>
</g>
</svg>
