<svg width="16" height="16" viewBox="0 0 16 16" fill="none" xmlns="http://www.w3.org/2000/svg">
<g id="health-care">
<path id="XMLID_482_" d="M5.60625 13.3888C5.8948 13.637 6.19265 13.893 6.49905 14.1585C6.50113 14.1603 6.50327 14.1622 6.5054 14.164L7.52467 15.0265C7.66124 15.142 7.83073 15.1998 8.00022 15.1998C8.16971 15.1998 8.33925 15.142 8.47581 15.0265L9.49489 14.164C9.49703 14.1622 9.49911 14.1604 9.5012 14.1585C11.5189 12.4105 13.0317 11.0722 14.1262 9.76701C15.4046 8.24261 16 6.8643 16 5.4294C16 2.83334 13.9242 0.799805 11.2742 0.799805C10.0831 0.799805 8.9063 1.23915 8.00022 2.00073C7.09389 1.2391 5.91706 0.799805 4.72596 0.799805C2.07589 0.799757 0 2.83334 0 5.42935C0 8.56742 2.2303 10.4855 5.60625 13.3888ZM5.09026 6.57465H7.03002V4.67432H8.96988V6.57465H10.9097V8.47492H8.96988V10.3751H7.03002V8.47492H5.09026V6.57465Z" fill="white"/>
</g>
</svg>
