<svg width="14" height="14" viewBox="0 0 14 14" fill="none" xmlns="http://www.w3.org/2000/svg">
<path d="M5.44444 9.21823C5.23816 9.21823 5.04033 9.14038 4.89447 9.00181C4.74861 8.86325 4.66667 8.67531 4.66667 8.47934V5.52378C4.66667 5.32782 4.74861 5.13988 4.89447 5.00131C5.04033 4.86274 5.23816 4.7849 5.44444 4.7849H8.55556C8.76184 4.7849 8.95967 4.86274 9.10553 5.00131C9.25139 5.13988 9.33333 5.32782 9.33333 5.52378V8.47934C9.33333 8.67531 9.25139 8.86325 9.10553 9.00181C8.95967 9.14038 8.76184 9.21823 8.55556 9.21823H5.44444ZM14 6.26267C14 5.87074 13.8361 5.49486 13.5444 5.21773C13.2527 4.94059 12.857 4.7849 12.4444 4.7849H10.7455C10.8378 5.02151 10.8863 5.27148 10.8889 5.52378V8.47934C10.8882 9.06704 10.6422 9.63048 10.2047 10.046C9.76728 10.4616 9.17419 10.6954 8.55556 10.696H5.44444C5.17887 10.6935 4.91574 10.6474 4.66667 10.5598V12.1738C4.66667 12.5657 4.83056 12.9416 5.12228 13.2187C5.414 13.4959 5.80966 13.6516 6.22222 13.6516H12.4444C12.857 13.6516 13.2527 13.4959 13.5444 13.2187C13.8361 12.9416 14 12.5657 14 12.1738V6.26267ZM1.55556 0.351562C1.143 0.351563 0.747335 0.507256 0.455612 0.784393C0.163888 1.06153 0 1.43741 0 1.82934V7.74045C0 8.13238 0.163888 8.50826 0.455612 8.7854C0.747335 9.06253 1.143 9.21823 1.55556 9.21823H3.25446C3.16226 8.98161 3.11376 8.73164 3.11111 8.47934V5.52378C3.11179 4.93609 3.35784 4.37264 3.79528 3.95708C4.23272 3.54151 4.82581 3.30776 5.44444 3.30712H8.55556C8.82114 3.3096 9.08427 3.35567 9.33333 3.4433V1.82934C9.33333 1.43741 9.16945 1.06153 8.87772 0.784393C8.586 0.507256 8.19034 0.351563 7.77778 0.351562H1.55556Z" fill="white"/>
</svg>
