<svg width="127" height="17" viewBox="0 0 127 17" fill="none" xmlns="http://www.w3.org/2000/svg">
<path d="M114.966 9.99571L107.066 1.21762H111.104L116.195 7.18672H116.897L121.638 1.21762H125.5L118.126 9.99571V15.7893H114.966V9.99571Z" fill="#F0F0F0" stroke="#F0F0F0"/>
<path d="M93.7233 4.02661V15.7893H96.8834V4.02661H103.204V1.21762H87.4031V4.02661H93.7233Z" fill="#F0F0F0" stroke="#F0F0F0"/>
<path d="M81.7851 1.04208H69.6713C69.6713 1.04208 67.8844 1.79588 67.2135 2.62214C66.5426 3.4484 66.209 4.2375 66.1601 5.25557C66.1091 6.3187 66.4139 7.44056 67.2135 8.24012C68.0913 9.11793 69.6713 9.64461 69.6713 9.64461H78.9761C78.9761 9.64461 79.8233 10.5195 79.8539 11.2247C79.8872 11.9905 78.9761 12.9803 78.9761 12.9803H67.5646C67.5646 12.9803 66.8624 13.7716 66.8624 14.3848C66.8624 14.998 67.5646 15.7893 67.5646 15.7893H79.5028C79.5028 15.7893 81.0113 15.32 81.9607 14.2092C82.6392 13.4153 82.8562 12.1219 82.8385 11.2247C82.8215 10.3656 82.4433 9.30968 81.7851 8.59124C80.8358 7.55495 79.5028 7.01119 79.5028 7.01119H70.3736C70.3736 7.01119 69.6713 6.05006 69.6713 5.34335C69.6713 4.63664 70.3736 3.85107 70.3736 3.85107H81.7851C81.7851 3.85107 82.3118 2.96872 82.3118 2.44658C82.3118 1.92443 81.7851 1.04208 81.7851 1.04208Z" fill="#F0F0F0" stroke="#F0F0F0"/>
<path d="M48.4284 15.7893H57.382L52.8174 7.3623L48.4284 15.7893Z" fill="#F30000"/>
<path d="M50.8862 1.56876C47.6427 7.18674 42.4593 15.7892 42.4593 15.7892H46.4972L52.6419 3.85105H53.3441L59.3132 15.7892H63.3511C63.3511 15.7892 58.0392 6.66008 55.0997 1.56876C54.277 0.143745 51.709 0.143747 50.8862 1.56876Z" fill="#F0F0F0" stroke="#F0F0F0"/>
<path d="M21.5674 15.6137V1.39319H36.139C36.139 1.39319 37.7185 2.21666 38.2458 3.14881C38.8236 4.17027 38.7725 6.13336 38.7725 6.13336C38.7725 6.13336 38.8236 8.09644 38.2458 9.11791C37.7185 10.0501 36.139 10.8735 36.139 10.8735L34.9101 10.9108L38.7725 15.6137H34.9101L31.2233 11.0225L24.552 11.2246V15.6137H21.5674Z" fill="#F0F0F0"/>
<path d="M31.2233 11.0225C29.1501 11.0853 27.1885 11.1448 24.552 11.2246V15.6137H21.5674V1.39319H36.139C36.139 1.39319 37.7185 2.21666 38.2458 3.14881C38.8236 4.17027 38.7725 6.13336 38.7725 6.13336C38.7725 6.13336 38.8236 8.09644 38.2458 9.11791C37.7185 10.0501 36.139 10.8735 36.139 10.8735C35.7129 10.8864 35.3043 10.8988 34.9101 10.9108M31.2233 11.0225L34.9101 15.6137H38.7725L34.9101 10.9108M31.2233 11.0225C32.3732 10.9876 33.5574 10.9518 34.9101 10.9108" stroke="#F0F0F0"/>
<path d="M34.559 3.85107H24.552L25.7809 6.13338L24.552 8.59124H34.559C34.559 8.59124 35.2213 8.02807 35.4368 7.53787C35.6593 7.03186 35.6124 6.13338 35.6124 6.13338C35.6124 6.13338 35.6275 5.35017 35.4368 4.90445C35.2262 4.41212 34.559 3.85107 34.559 3.85107Z" fill="#0C0202" stroke="black"/>
<path fill-rule="evenodd" clip-rule="evenodd" d="M0.5 15.7893V1.39319H3.30899V7.88898V15.7893H0.5Z" fill="#F0F0F0"/>
<path fill-rule="evenodd" clip-rule="evenodd" d="M12.0871 15.7893C8.65902 12.704 6.73705 10.9742 3.30899 7.88898L12.0871 1.39319H15.5983L7.52247 8.59122L16.8272 15.7893H12.0871Z" fill="#F0F0F0"/>
<path d="M3.30899 7.88898V1.39319H0.5V15.7893H3.30899V7.88898ZM3.30899 7.88898C6.73705 10.9742 8.65902 12.704 12.0871 15.7893H16.8272L7.52247 8.59122L15.5983 1.39319H12.0871L3.30899 7.88898Z" stroke="#F0F0F0"/>
</svg>
