<svg width="222" height="20" viewBox="0 0 222 20" fill="none" xmlns="http://www.w3.org/2000/svg">
<rect width="222" height="20" fill="#2C2C2C"/>
<g id="Components">
<path d="M-350 -183C-350 -184.105 -349.105 -185 -348 -185H12484C12485.1 -185 12486 -184.105 12486 -183V16679C12486 16680.1 12485.1 16681 12484 16681H-348C-349.105 16681 -350 16680.1 -350 16679V-183Z" fill="#727272"/>
<g id="1920 / Header">
<g id="Header">
<g id="Rectangle 2" filter="url(#filter0_d_2655_580)">
<path d="M-200 -35H1720V45C1720 50.5229 1715.52 55 1710 55H-190C-195.523 55 -200 50.5229 -200 45V-35Z" fill="white"/>
</g>
<g id="Logo">
<g id="Clip path group">
<mask id="mask0_2655_580" style="mask-type:luminance" maskUnits="userSpaceOnUse" x="0" y="0" width="127" height="20">
<g id="clip0_2445_1890">
<path id="Vector" d="M126.732 0H0V20H126.732V0Z" fill="white"/>
</g>
</mask>
<g mask="url(#mask0_2655_580)">
<g id="Group">
<path id="Vector_2" d="M12.5084 4.0469C12.5084 5.36881 12.3042 6.44979 11.8958 7.29188C11.4875 8.1301 10.9808 8.79299 10.3758 9.2805C10.9808 9.76993 11.4875 10.4289 11.8958 11.2614C12.3042 12.0938 12.5084 13.171 12.5084 14.4909V19.2929H9.55146V14.4909C9.55146 13.5872 9.35485 12.8646 8.96159 12.325C8.57213 11.7817 8.12214 11.3886 7.60791 11.1457C7.09364 10.8991 6.64934 10.7758 6.27688 10.7758H2.97963V19.2929H0V0.385742H2.97963V7.73126H6.27688C6.64934 7.73126 7.09364 7.61561 7.60791 7.38437C8.12214 7.14926 8.57213 6.76006 8.96159 6.2205C9.35485 5.67708 9.55146 4.95259 9.55146 4.0469V0.385742H12.5084V4.0469Z" fill="#121514"/>
<path id="Vector_3" d="M33.2398 19.2929L29.9954 13.7279C29.6022 13.7857 29.2713 13.8126 29.0048 13.8126H26.1612V19.2929H23.1816V0.385742H29.0048C29.3073 0.385742 29.7251 0.422353 30.2602 0.49365C30.7933 0.566872 31.3718 0.724881 31.9919 0.97153C32.6121 1.21433 33.2038 1.57273 33.7692 2.05061C34.3382 2.5285 34.7995 3.18173 35.1531 4.00839C35.5104 4.83117 35.69 5.85633 35.69 7.08375C35.69 8.16864 35.5464 9.09548 35.259 9.86628C34.9754 10.6332 34.6029 11.2595 34.1397 11.747C33.6803 12.2364 33.1869 12.6257 32.6575 12.9185L36.3858 19.2929H33.2398ZM26.1612 10.7758H29.4585C29.8309 10.7758 30.2752 10.6582 30.7895 10.4213C31.3037 10.1861 31.7537 9.7969 32.1432 9.25735C32.5364 8.71397 32.7331 7.98944 32.7331 7.08375C32.7331 6.18006 32.5364 5.45744 32.1432 4.91793C31.7537 4.3745 31.3037 3.98331 30.7895 3.74631C30.2752 3.51124 29.8309 3.39177 29.4585 3.39177H26.1612V10.7758Z" fill="#121514"/>
<path id="Vector_4" d="M52.8102 0C53.1126 0 53.5282 0.036612 54.0579 0.107908C54.591 0.181132 55.1696 0.35263 55.7893 0.624329C56.4099 0.897955 57.0033 1.31803 57.5745 1.8884C58.1439 2.45878 58.605 3.23341 58.9585 4.20844C59.3103 5.18542 59.4877 6.43404 59.4877 7.9544V19.2925H56.5383V7.27613C56.5383 6.24329 56.3985 5.43396 56.1223 4.84818C55.8501 4.25855 55.5101 3.82881 55.1015 3.56099C54.6933 3.28929 54.279 3.11779 53.8612 3.04457C53.4417 2.96749 53.0917 2.92895 52.8102 2.92895C52.5266 2.92895 52.1822 2.96749 51.7741 3.04457C51.3655 3.11779 50.9573 3.28929 50.5487 3.56099C50.1401 3.82881 49.7966 4.25855 49.5204 4.84818C49.2482 5.43396 49.1118 6.24329 49.1118 7.27613V19.2925H46.1249V7.9544C46.1249 6.43404 46.3006 5.18542 46.6541 4.20844C47.0116 3.23341 47.4748 2.45878 48.046 1.8884C48.615 1.31803 49.2102 0.897955 49.8307 0.624329C50.4504 0.35263 51.025 0.181132 51.5547 0.107908C52.0879 0.036612 52.5074 0 52.8102 0ZM52.8102 11.261C52.4016 11.261 52.0498 11.1127 51.7588 10.814C51.4656 10.5172 51.32 10.1588 51.32 9.74258C51.32 9.3264 51.4656 8.96991 51.7588 8.67124C52.0498 8.37449 52.4016 8.22418 52.8102 8.22418C53.2184 8.22418 53.5684 8.37449 53.8612 8.67124C54.1527 8.96991 54.3 9.3264 54.3 9.74258C54.3 10.1588 54.1527 10.5172 53.8612 10.814C53.5684 11.1127 53.2184 11.261 52.8102 11.261Z" fill="#121514"/>
<path id="Vector_5" d="M76.5774 8.4092C77.2163 8.57489 77.8893 8.7676 78.5964 8.98724C79.3074 9.20307 79.9725 9.49595 80.5931 9.86591C81.2167 10.2359 81.7197 10.7292 82.0981 11.3458C82.4796 11.9586 82.6724 12.7332 82.6724 13.6736C82.6724 14.8355 82.4932 15.7912 82.1357 16.5408C81.7822 17.2924 81.3211 17.8801 80.7522 18.3059C80.1867 18.7279 79.5945 19.0382 78.9744 19.2386C78.3547 19.439 77.7761 19.5584 77.2425 19.6008C76.7076 19.6471 76.2899 19.6702 75.9875 19.6702C75.7244 19.6702 75.3669 19.6413 74.9137 19.5854C74.4597 19.5334 73.9606 19.412 73.4161 19.2232C72.8755 19.0344 72.3441 18.7414 71.8206 18.3445C71.3005 17.9437 70.8373 17.4022 70.4287 16.7181C70.0205 16.0302 69.7177 15.1612 69.5215 14.1129H72.4783C72.6902 14.9453 73.0114 15.5466 73.4467 15.9165C73.885 16.2865 74.3426 16.5177 74.8228 16.6102C75.3009 16.6988 75.689 16.7412 75.9875 16.7412C76.275 16.7412 76.6246 16.7162 77.0385 16.6642C77.4567 16.6083 77.8705 16.483 78.2787 16.2865C78.6873 16.0861 79.0273 15.7836 79.3 15.377C79.5757 14.9666 79.7156 14.3981 79.7156 13.6736C79.7156 13.0781 79.4359 12.6292 78.8765 12.3247C78.3206 12.0164 77.3221 11.6908 75.8817 11.3458C75.2105 11.182 74.5051 10.9816 73.764 10.7446C73.0267 10.5095 72.3363 10.1974 71.6917 9.81196C71.0453 9.42276 70.5214 8.89858 70.1189 8.2396C69.7199 7.57676 69.5215 6.75009 69.5215 5.75769C69.5215 4.69018 69.6972 3.80378 70.0507 3.09852C70.4082 2.38941 70.8692 1.82674 71.4347 1.41052C72.0037 0.994302 72.5993 0.689844 73.2194 0.493298C73.8435 0.292895 74.4221 0.161863 74.9513 0.100201C75.4845 0.0346852 75.904 0 76.2068 0C76.4677 0 76.8269 0.0289042 77.2806 0.0847858C77.7342 0.136813 78.2297 0.25821 78.7703 0.447053C79.3153 0.637818 79.8462 0.93264 80.3658 1.33344C80.8898 1.73039 81.357 2.27186 81.7651 2.95978C82.1737 3.64963 82.4761 4.51676 82.6724 5.56502H79.7462C79.5491 4.73258 79.2279 4.13137 78.7856 3.76137C78.3412 3.39141 77.8801 3.16018 77.4016 3.06769C76.9213 2.9752 76.5245 2.92895 76.2068 2.92895C75.9193 2.92895 75.5714 2.95785 75.1633 3.01373C74.7551 3.07155 74.3465 3.18908 73.9379 3.36829C73.5297 3.54943 73.1854 3.82881 72.9096 4.20844C72.6369 4.58996 72.501 5.1064 72.501 5.75769C72.501 6.22596 72.6295 6.60942 72.8869 6.90613C73.1438 7.2048 73.5691 7.46689 74.1647 7.69236C74.7586 7.91973 75.564 8.15867 76.5774 8.4092Z" fill="#121514"/>
<path id="Vector_6" d="M91.5361 0.385742H99.5749V19.2929H96.6181V3.39177H91.5361V0.385742ZM103.168 3.4226C102.759 3.4226 102.408 3.27422 102.116 2.97555C101.823 2.6788 101.678 2.32039 101.678 1.90417C101.678 1.48795 101.823 1.13147 102.116 0.832792C102.408 0.536041 102.759 0.385742 103.168 0.385742C103.576 0.385742 103.925 0.536041 104.219 0.832792C104.51 1.13147 104.657 1.48795 104.657 1.90417C104.657 2.32039 104.51 2.6788 104.219 2.97555C103.925 3.27422 103.576 3.4226 103.168 3.4226Z" fill="#121514"/>
<path id="Vector_7" d="M124.866 3.36694C124.458 3.36694 124.106 3.21856 123.815 2.91988C123.522 2.62314 123.377 2.26472 123.377 1.84851C123.377 1.43229 123.522 1.0758 123.815 0.777128C124.106 0.480381 124.458 0.330078 124.866 0.330078C125.275 0.330078 125.624 0.480381 125.918 0.777128C126.209 1.0758 126.356 1.43229 126.356 1.84851C126.356 2.26472 126.209 2.62314 125.918 2.91988C125.624 3.21856 125.275 3.36694 124.866 3.36694ZM119.671 7.8991C119.922 7.8991 120.225 7.87213 120.578 7.81435C120.93 7.75844 121.293 7.63702 121.667 7.45208C122.04 7.26324 122.373 6.95488 122.666 6.5271C122.957 6.10124 123.167 5.5251 123.293 4.80057H126.22C126.078 5.87004 125.821 6.76608 125.449 7.49057C125.074 8.2151 124.643 8.79706 124.156 9.23253C123.671 9.66417 123.167 9.99368 122.643 10.2191C122.117 10.4465 121.624 10.6026 121.161 10.6893V19.2912H118.181V10.6893C117.667 10.5814 117.107 10.3887 116.502 10.1112C115.901 9.82986 115.334 9.40208 114.801 8.83173C114.271 8.26137 113.837 7.49444 113.5 6.5271C113.161 5.56173 112.993 4.34388 112.993 2.87364V0.384031H115.973V3.55192C115.973 4.58475 116.109 5.3979 116.381 5.98759C116.657 6.57337 117.001 7.00306 117.41 7.27475C117.818 7.54262 118.226 7.71413 118.635 7.79119C119.043 7.86439 119.387 7.8991 119.671 7.8991Z" fill="#121514"/>
<path id="Vector_8" d="M51.1055 9.97926C51.1055 9.01664 51.8729 8.23633 52.8168 8.23633C53.7603 8.23633 54.5277 9.01664 54.5277 9.97926C54.5277 10.9418 53.7603 11.7221 52.8168 11.7221C51.8729 11.7221 51.1055 10.9418 51.1055 9.97926Z" fill="#E50606"/>
<path id="Vector_9" d="M103.21 0.0449219C102.264 0.0449219 101.499 0.82533 101.499 1.7888C101.499 2.75227 102.264 3.53268 103.21 3.53268C104.155 3.53268 104.921 2.75227 104.921 1.7888C104.921 0.82533 104.155 0.0449219 103.21 0.0449219Z" fill="#E50606"/>
<path id="Vector_10" d="M101.499 1.7888C101.499 0.825681 102.266 0.0449219 103.21 0.0449219C104.154 0.0449219 104.921 0.825681 104.921 1.7888C104.921 2.75192 104.154 3.53268 103.21 3.53268C102.266 3.53268 101.499 2.75192 101.499 1.7888Z" fill="#E50606"/>
<path id="Vector_11" d="M125.022 0.0449219C124.077 0.0449219 123.312 0.82533 123.312 1.7888C123.312 2.75227 124.077 3.53268 125.022 3.53268C125.968 3.53268 126.734 2.75227 126.734 1.7888C126.734 0.82533 125.968 0.0449219 125.022 0.0449219Z" fill="#E50606"/>
<path id="Vector_12" d="M123.312 1.7888C123.312 0.825681 124.078 0.0449219 125.022 0.0449219C125.967 0.0449219 126.734 0.825681 126.734 1.7888C126.734 2.75192 125.967 3.53268 125.022 3.53268C124.078 3.53268 123.312 2.75192 123.312 1.7888Z" fill="#E50606"/>
</g>
</g>
</g>
<g id="Clip path group_2">
<mask id="mask1_2655_580" style="mask-type:luminance" maskUnits="userSpaceOnUse" x="142" y="0" width="81" height="20">
<g id="clip1_2445_1890">
<path id="Vector_13" d="M222 0H142.465V20H222V0Z" fill="white"/>
</g>
</mask>
<g mask="url(#mask1_2655_580)">
<g id="Group_2">
<path id="Vector_14" d="M149.892 8.73872C150.534 8.90463 151.21 9.09721 151.921 9.31686C152.635 9.53277 153.304 9.82574 153.927 10.1957C154.553 10.5657 155.059 11.0587 155.439 11.6754C155.822 12.2883 156.016 13.0628 156.016 14.0032C156.016 15.1654 155.836 16.1209 155.477 16.8705C155.121 17.6221 154.658 18.2098 154.086 18.6357C153.518 19.0576 152.924 19.368 152.301 19.5683C151.677 19.7687 151.096 19.888 150.56 19.9305C150.023 19.9769 149.603 19.9998 149.299 19.9998C149.035 19.9998 148.676 19.9709 148.22 19.915C147.764 19.8632 147.263 19.7417 146.716 19.5528C146.172 19.3639 145.639 19.0709 145.113 18.6743C144.59 18.2735 144.125 17.7321 143.715 17.048C143.304 16.3598 143.001 15.4909 142.803 14.4424H145.774C145.987 15.275 146.309 15.8761 146.746 16.2461C147.187 16.6161 147.647 16.8476 148.129 16.9398C148.61 17.0287 148.999 17.0709 149.299 17.0709C149.588 17.0709 149.939 17.0457 150.355 16.9939C150.775 16.938 151.191 16.8128 151.601 16.6161C152.012 16.4157 152.354 16.1132 152.627 15.7065C152.905 15.2961 153.045 14.7276 153.045 14.0032C153.045 13.408 152.764 12.9587 152.202 12.6543C151.643 12.3461 150.64 12.0205 149.193 11.6754C148.519 11.5117 147.81 11.3113 147.065 11.0743C146.325 10.8391 145.631 10.5272 144.983 10.1417C144.334 9.75241 143.808 9.22832 143.403 8.56944C143.002 7.9065 142.803 7.07983 142.803 6.08721C142.803 5.01983 142.98 4.13352 143.335 3.42837C143.694 2.71908 144.157 2.1565 144.725 1.74019C145.297 1.32388 145.895 1.01948 146.519 0.823168C147.145 0.622412 147.726 0.491702 148.258 0.429835C148.794 0.364279 149.216 0.329834 149.519 0.329834C149.782 0.329834 150.143 0.358723 150.598 0.414634C151.055 0.466501 151.552 0.587968 152.095 0.776857C152.642 0.967613 153.176 1.26241 153.699 1.66317C154.225 2.06019 154.694 2.6017 155.104 3.28948C155.515 3.97944 155.819 4.8465 156.016 5.89463H153.075C152.878 5.06241 152.555 4.46095 152.111 4.09095C151.664 3.72095 151.201 3.48983 150.72 3.39721C150.237 3.30499 149.839 3.25872 149.519 3.25872C149.231 3.25872 148.881 3.28761 148.471 3.34352C148.061 3.4013 147.65 3.51872 147.24 3.69797C146.83 3.87908 146.484 4.15832 146.207 4.53797C145.933 4.91983 145.797 5.4361 145.797 6.08721C145.797 6.55574 145.926 6.93908 146.184 7.23575C146.443 7.53464 146.87 7.7965 147.468 8.02206C148.065 8.24943 148.874 8.48832 149.892 8.73872Z" fill="#E50606"/>
<path id="Vector_15" d="M172.626 0.329834C172.93 0.329834 173.348 0.366145 173.88 0.437612C174.415 0.510945 174.996 0.68059 175.619 0.946501C176.243 1.20837 176.839 1.62463 177.413 2.19503C177.985 2.7613 178.448 3.53241 178.803 4.50721C179.157 5.48428 179.335 6.73277 179.335 8.25317V12.0532C179.335 13.5754 179.157 14.8243 178.803 15.7991C178.448 16.7761 177.985 17.5487 177.413 18.1191C176.839 18.6894 176.243 19.1117 175.619 19.3832C174.996 19.6491 174.415 19.8187 173.88 19.8921C173.348 19.9632 172.93 19.9998 172.626 19.9998C172.322 19.9998 171.9 19.9632 171.365 19.8921C170.833 19.8187 170.252 19.6491 169.625 19.3832C169.002 19.1117 168.404 18.6894 167.832 18.1191C167.263 17.5487 166.8 16.7761 166.441 15.7991C166.086 14.8243 165.909 13.5754 165.909 12.0532V8.25317C165.909 6.73277 166.086 5.48428 166.441 4.50721C166.8 3.53241 167.263 2.7613 167.832 2.19503C168.404 1.62463 169.002 1.20837 169.625 0.946501C170.252 0.68059 170.833 0.510945 171.365 0.437612C171.9 0.366145 172.322 0.329834 172.626 0.329834ZM176.372 7.60575C176.372 6.57277 176.231 5.76352 175.954 5.17797C175.674 4.58832 175.331 4.15832 174.921 3.89055C174.514 3.61908 174.102 3.44761 173.682 3.37428C173.26 3.29726 172.909 3.25872 172.626 3.25872C172.337 3.25872 171.987 3.29726 171.578 3.37428C171.171 3.44761 170.764 3.61908 170.354 3.89055C169.944 4.15832 169.598 4.58832 169.32 5.17797C169.047 5.76352 168.91 6.57277 168.91 7.60575V12.7005C168.91 13.7546 169.047 14.5735 169.32 15.1594C169.598 15.7454 169.944 16.175 170.354 16.4465C170.764 16.7202 171.171 16.8917 171.578 16.9632C171.987 17.0361 172.337 17.0709 172.626 17.0709C172.909 17.0709 173.26 17.0361 173.682 16.9632C174.102 16.8917 174.514 16.7202 174.921 16.4465C175.331 16.175 175.674 15.7454 175.954 15.1594C176.231 14.5735 176.372 13.7546 176.372 12.7005V7.60575Z" fill="#E50606"/>
<path id="Vector_16" d="M200.708 0.715576V3.72149H196.316C196.031 3.72149 195.686 3.75629 195.275 3.82149C194.865 3.88335 194.455 4.04149 194.045 4.29189C193.634 4.54446 193.289 4.96633 193.011 5.55593C192.738 6.14189 192.601 6.95113 192.601 7.98371V19.6226H189.607V8.66224C189.607 7.14189 189.784 5.893 190.139 4.91633C190.498 3.94113 190.962 3.16669 191.53 2.59629C192.101 2.02593 192.7 1.6078 193.323 1.33962C193.946 1.06815 194.525 0.896686 195.063 0.823352C195.598 0.752241 196.016 0.715576 196.316 0.715576H200.708Z" fill="#E50606"/>
<path id="Vector_17" d="M208.914 0.715576H216.991V19.6226H214.02V3.72149H208.914V0.715576Z" fill="#E50606"/>
<path id="Vector_18" d="M218.545 2.36213C218.545 1.3988 219.314 0.618042 220.263 0.618042C221.212 0.618042 221.981 1.3988 221.981 2.36213C221.981 3.32511 221.212 4.10582 220.263 4.10582C219.314 4.10582 218.545 3.32511 218.545 2.36213Z" fill="#121514"/>
<path id="Vector_19" d="M195.258 10.3756C195.258 9.4123 196.028 8.63159 196.977 8.63159C197.925 8.63159 198.696 9.4123 198.696 10.3756C198.696 11.3386 197.925 12.1194 196.977 12.1194C196.028 12.1194 195.258 11.3386 195.258 10.3756Z" fill="#121514"/>
</g>
</g>
</g>
</g>
</g>
</g>
</g>
<defs>
<filter id="filter0_d_2655_580" x="-225" y="-60" width="1970" height="140" filterUnits="userSpaceOnUse" color-interpolation-filters="sRGB">
<feFlood flood-opacity="0" result="BackgroundImageFix"/>
<feColorMatrix in="SourceAlpha" type="matrix" values="0 0 0 0 0 0 0 0 0 0 0 0 0 0 0 0 0 0 127 0" result="hardAlpha"/>
<feMorphology radius="10" operator="dilate" in="SourceAlpha" result="effect1_dropShadow_2655_580"/>
<feOffset/>
<feGaussianBlur stdDeviation="7.5"/>
<feComposite in2="hardAlpha" operator="out"/>
<feColorMatrix type="matrix" values="0 0 0 0 0 0 0 0 0 0 0 0 0 0 0 0 0 0 0.05 0"/>
<feBlend mode="normal" in2="BackgroundImageFix" result="effect1_dropShadow_2655_580"/>
<feBlend mode="normal" in="SourceGraphic" in2="effect1_dropShadow_2655_580" result="shape"/>
</filter>
</defs>
</svg>
