<svg width="16" height="16" viewBox="0 0 16 16" fill="none" xmlns="http://www.w3.org/2000/svg">
<g id="maritime">
<path id="maritime_2" d="M15.5312 7.53125H14.4931V7.46281C14.4931 7.21688 14.2937 7.0175 14.0478 7.0175H13.7556C13.6062 6.13719 13.2606 5.32406 12.7644 4.625L12.9712 4.41844C13.145 4.24437 13.145 3.9625 12.9712 3.78844L12.923 3.74016L13.8131 2.84981C13.9961 2.66675 13.9961 2.36994 13.813 2.18691C13.6299 2.00388 13.3331 2.00391 13.1501 2.187L12.2601 3.07725L12.2116 3.02875C12.0375 2.855 11.7556 2.855 11.5816 3.02875L11.375 3.23563C10.6759 2.73938 9.86281 2.39375 8.9825 2.24437V1.95219C8.9825 1.70625 8.78312 1.50688 8.53719 1.50688H8.46875V0.46875C8.46875 0.21 8.25875 0 8 0C7.74125 0 7.53125 0.21 7.53125 0.46875V1.50688H7.46281C7.21688 1.50688 7.0175 1.70625 7.0175 1.95219V2.24437C6.13719 2.39375 5.32406 2.73938 4.625 3.23563L4.41844 3.02875C4.24437 2.855 3.9625 2.855 3.78844 3.02875L3.74003 3.07716L2.84987 2.18697C2.66684 2.00391 2.37003 2.00391 2.18697 2.18697C2.00391 2.37003 2.00391 2.66681 2.18697 2.84987L3.07713 3.74003L3.02872 3.78844C2.85497 3.9625 2.85497 4.24437 3.02872 4.41844L3.23559 4.625C2.73934 5.32406 2.39372 6.13719 2.24434 7.0175H1.95216C1.70622 7.0175 1.50684 7.21688 1.50684 7.46281V7.53125H0.46875C0.209875 7.53125 0 7.74113 0 8C0 8.25887 0.209875 8.46875 0.46875 8.46875H1.50688V8.53719C1.50688 8.78312 1.70625 8.9825 1.95219 8.9825H2.24437C2.39375 9.86281 2.73938 10.6759 3.23563 11.375L3.02875 11.5816C2.855 11.7556 2.855 12.0375 3.02875 12.2116L3.07725 12.2601L2.187 13.1501C2.00391 13.3331 2.00388 13.6299 2.18691 13.813C2.36991 13.996 2.66669 13.9961 2.84981 13.8131L3.74016 12.923L3.78844 12.9712C3.9625 13.145 4.24437 13.145 4.41844 12.9712L4.625 12.7644C5.32406 13.2606 6.13719 13.6062 7.0175 13.7556V14.0478C7.0175 14.2937 7.21688 14.4931 7.46281 14.4931H7.53125V15.5312C7.53125 15.79 7.74125 16 8 16C8.25875 16 8.46875 15.79 8.46875 15.5312V14.4931H8.53719C8.78312 14.4931 8.9825 14.2937 8.9825 14.0478V13.7556C9.86281 13.6062 10.6759 13.2606 11.375 12.7644L11.5816 12.9712C11.7556 13.145 12.0375 13.145 12.2116 12.9712L12.26 12.9228L13.1501 13.813C13.3332 13.9961 13.63 13.9961 13.813 13.813C13.9961 13.6299 13.9961 13.3332 13.813 13.1501L12.9229 12.2599L12.9713 12.2115C13.145 12.0375 13.145 11.7556 12.9713 11.5815L12.7644 11.375C13.2607 10.6759 13.6063 9.86278 13.7557 8.98247H14.0478C14.2938 8.98247 14.4932 8.78309 14.4932 8.53716V8.46875H15.5312C15.7901 8.46875 16 8.25887 16 8C16 7.74113 15.7901 7.53125 15.5312 7.53125ZM12.1477 7.53125H9.56947C9.53709 7.423 9.49409 7.31934 9.44119 7.22172L11.2642 5.39866C11.7418 5.99719 12.0582 6.72991 12.1477 7.53125ZM10.6013 4.73575L8.77828 6.55881C8.68066 6.50591 8.577 6.46291 8.46875 6.43053V3.85228C9.27009 3.94184 10.0028 4.25816 10.6013 4.73575ZM7.53125 3.85228V6.43053C7.423 6.46291 7.31934 6.50591 7.22172 6.55881L5.39866 4.73575C5.99719 4.25816 6.72991 3.94184 7.53125 3.85228ZM4.73578 5.39866L6.55884 7.22172C6.50594 7.31934 6.46294 7.423 6.43056 7.53125H3.85231C3.94184 6.72991 4.25816 5.99719 4.73578 5.39866ZM3.85228 8.46875H6.43053C6.46291 8.577 6.50591 8.68066 6.55881 8.77828L4.73575 10.6013C4.25816 10.0028 3.94184 9.27009 3.85228 8.46875ZM5.39866 11.2642L7.22172 9.44116C7.31934 9.49406 7.423 9.53706 7.53125 9.56944V12.1477C6.72991 12.0582 5.99719 11.7418 5.39866 11.2642ZM8.46875 12.1477V9.56947C8.577 9.53709 8.68066 9.49409 8.77828 9.44119L10.6013 11.2642C10.0028 11.7418 9.27009 12.0582 8.46875 12.1477ZM11.2642 10.6013L9.44119 8.77828C9.49409 8.68066 9.53709 8.577 9.56947 8.46875H12.1477C12.0582 9.27009 11.7418 10.0028 11.2642 10.6013Z" fill="white"/>
</g>
</svg>
