<svg width="14" height="14" viewBox="0 0 14 14" fill="none" xmlns="http://www.w3.org/2000/svg">
<path d="M13.2992 5.90679C13.2992 4.22988 11.898 2.86378 10.1695 2.84836C9.79889 1.40229 8.44108 0.351562 6.87051 0.351562C4.99631 0.351562 3.47154 1.82776 3.47154 3.64227C3.47154 3.65789 3.47164 3.67352 3.47185 3.68925C3.45603 3.68894 3.4402 3.68884 3.42437 3.68884C1.92172 3.68884 0.699219 4.8723 0.699219 6.32708C0.699219 7.78187 1.92172 8.96543 3.42437 8.96543H3.7301V10.0361C3.24536 10.1986 2.89624 10.6448 2.89624 11.1687C2.89624 11.8294 3.45152 12.367 4.13404 12.367C4.81666 12.367 5.37195 11.8294 5.37195 11.1687C5.37195 10.6448 5.02272 10.1986 4.53798 10.0361V8.96543H6.59528V11.3206C6.11054 11.4831 5.76131 11.9293 5.76131 12.4532C5.76131 13.114 6.31659 13.6516 6.99922 13.6516C7.68174 13.6516 8.23702 13.114 8.23702 12.4532C8.23702 11.9293 7.8879 11.4831 7.40316 11.3206V8.96543H9.46036V10.0361C8.97561 10.1986 8.62649 10.6448 8.62649 11.1687C8.62649 11.8294 9.18177 12.367 9.86429 12.367C10.5469 12.367 11.1022 11.8294 11.1022 11.1687C11.1022 10.6448 10.753 10.1986 10.2682 10.0361V8.96269C11.9511 8.89724 13.2992 7.55174 13.2992 5.90679ZM4.13414 11.585C3.89696 11.585 3.70411 11.3982 3.70411 11.1687C3.70411 10.939 3.89696 10.7523 4.13414 10.7523C4.37122 10.7523 4.56407 10.939 4.56407 11.1687C4.56407 11.3982 4.37122 11.585 4.13414 11.585ZM6.99922 12.8694C6.76214 12.8694 6.56929 12.6827 6.56929 12.4532C6.56929 12.2236 6.76214 12.0369 6.99922 12.0369C7.2364 12.0369 7.42925 12.2236 7.42925 12.4532C7.42925 12.6827 7.2363 12.8694 6.99922 12.8694ZM9.8644 11.585C9.62722 11.585 9.43437 11.3982 9.43437 11.1687C9.43437 10.939 9.62722 10.7523 9.8644 10.7523C10.1015 10.7523 10.2944 10.939 10.2944 11.1687C10.2944 11.3982 10.1015 11.585 9.8644 11.585Z" fill="white"/>
</svg>
