<svg width="19" height="22" viewBox="0 0 19 22" fill="none" xmlns="http://www.w3.org/2000/svg">
<g id="Group 4">
<path id="Vector" d="M9.49991 21.4001C9.22303 21.4002 8.95102 21.3264 8.71121 21.1861L6.20148 19.6804C5.82692 19.4679 6.00943 19.3929 6.13331 19.349C6.53167 19.2243 6.91309 19.0496 7.2687 18.829C7.29847 18.8151 7.33126 18.809 7.36396 18.8115C7.39667 18.814 7.42822 18.8249 7.45561 18.8431L9.38409 20.0042C9.42 20.0235 9.46001 20.0336 9.50064 20.0336C9.54126 20.0336 9.58127 20.0235 9.61718 20.0042L17.1376 15.605C17.1728 15.5836 17.2019 15.5533 17.2221 15.5171C17.2423 15.4809 17.2528 15.44 17.2527 15.3985V6.59846C17.2527 6.55623 17.242 6.5147 17.2216 6.47787C17.2012 6.44105 17.1717 6.41018 17.1361 6.38823L9.61572 1.99269C9.58025 1.97244 9.54024 1.96181 9.49954 1.96181C9.45884 1.96181 9.41882 1.97244 9.38336 1.99269L1.86734 6.38972C1.83149 6.41121 1.80172 6.44171 1.78092 6.47828C1.76012 6.51486 1.74898 6.55625 1.7486 6.59846V15.3948C1.7487 15.4362 1.75968 15.4769 1.78042 15.5127C1.80116 15.5485 1.8309 15.578 1.86661 15.5983L3.92923 16.8047C5.04703 17.3708 5.73163 16.7037 5.73163 16.0336V7.34876C5.73163 7.31949 5.73732 7.29051 5.74837 7.26347C5.75942 7.23644 5.77562 7.21187 5.79604 7.19117C5.81646 7.17048 5.8407 7.15406 5.86738 7.14286C5.89406 7.13166 5.92265 7.1259 5.95153 7.1259H6.90441C6.96273 7.1259 7.01866 7.14938 7.0599 7.19117C7.10114 7.23297 7.1243 7.28965 7.1243 7.34876V16.0344C7.1243 17.5461 6.31216 18.4115 4.8975 18.4115C4.2872 18.4223 3.68647 18.2569 3.16546 17.9346L1.1886 16.7854C0.948611 16.6438 0.74948 16.4408 0.611086 16.1968C0.472692 15.9528 0.399876 15.6762 0.399908 15.3948V6.59846C0.399194 6.31657 0.471702 6.03944 0.610145 5.79495C0.748588 5.55045 0.948088 5.34719 1.1886 5.20559L8.70975 0.80484C8.95202 0.670506 9.22374 0.600098 9.49991 0.600098C9.77607 0.600098 10.0478 0.670506 10.2901 0.80484L17.8105 5.20559C18.0504 5.34695 18.2496 5.54962 18.3881 5.79338C18.5267 6.03714 18.5997 6.31345 18.5999 6.59475V15.3948C18.5995 15.6762 18.5264 15.9527 18.3879 16.1966C18.2494 16.4406 18.0504 16.6436 17.8105 16.7854L10.2901 21.1861C10.0498 21.3266 9.77727 21.4004 9.49991 21.4001Z" fill="white"/>
<path id="Vector_2" d="M8.07324 12.4508C8.07324 12.3917 8.09641 12.335 8.13765 12.2932C8.17889 12.2514 8.23482 12.2279 8.29314 12.2279H9.26581C9.31778 12.2281 9.36801 12.2469 9.40759 12.2811C9.44717 12.3152 9.47355 12.3624 9.48204 12.4144C9.62863 13.418 10.0684 13.9239 12.057 13.9239C13.641 13.9239 14.3161 13.5606 14.3161 12.7086C14.3161 12.2175 14.1248 11.8528 11.6627 11.6084C9.60445 11.4019 8.33199 10.9398 8.33199 9.2728C8.33199 7.73507 9.61104 6.81763 11.755 6.81763C14.1643 6.81763 15.3569 7.66524 15.5079 9.48378C15.5102 9.51414 15.5063 9.54466 15.4966 9.57345C15.4868 9.60224 15.4713 9.62869 15.451 9.65118C15.4308 9.67366 15.4062 9.6917 15.3788 9.70418C15.3514 9.71665 15.3217 9.72331 15.2917 9.72372H14.3124C14.2633 9.72303 14.2158 9.70568 14.1775 9.67444C14.1393 9.6432 14.1124 9.59988 14.1013 9.55138C13.8675 8.49576 13.295 8.1585 11.7558 8.1585C10.0259 8.1585 9.82507 8.76914 9.82507 9.22675C9.82507 9.78093 10.0626 9.94287 12.3978 10.2556C14.7089 10.5654 15.807 11.0037 15.807 12.6499C15.807 14.3109 14.4407 15.2618 12.0577 15.2618C8.76298 15.2663 8.07324 13.7352 8.07324 12.4508Z" fill="white"/>
</g>
</svg>
