<svg width="14" height="14" viewBox="0 0 14 14" fill="none" xmlns="http://www.w3.org/2000/svg">
<path fill-rule="evenodd" clip-rule="evenodd" d="M10.256 4.88371H12.8607C13.1628 4.88337 13.4524 4.7632 13.6661 4.54957C13.8797 4.33594 13.9999 4.0463 14.0002 3.74418V1.13953C13.9999 0.837416 13.8797 0.547771 13.6661 0.334142C13.4524 0.120513 13.1628 0.000344686 12.8607 0H10.256C9.95385 0.000344686 9.6642 0.120513 9.45057 0.334142C9.23693 0.547771 9.11676 0.837416 9.11642 1.13953V1.95349H7.65152C7.34939 1.95383 7.05974 2.074 6.84611 2.28763C6.63248 2.50126 6.51231 2.79091 6.51196 3.09302V6.51163H4.88379V5.69768C4.88345 5.39556 4.76328 5.10591 4.54964 4.89229C4.33601 4.67866 4.04636 4.55849 3.74424 4.55814H1.13955C0.837429 4.55849 0.54778 4.67866 0.334148 4.89229C0.120515 5.10591 0.000344692 5.39556 0 5.69768V8.30232C0.000344692 8.60444 0.120515 8.89408 0.334148 9.10771C0.54778 9.32134 0.837429 9.44151 1.13955 9.44186H3.74424C4.04636 9.44151 4.33601 9.32134 4.54964 9.10771C4.76328 8.89408 4.88345 8.60444 4.88379 8.30232V7.48838H6.51196V10.907C6.51231 11.2091 6.63248 11.4987 6.84611 11.7124C7.05974 11.926 7.34939 12.0462 7.65152 12.0465H9.11642V12.8605C9.11676 13.1626 9.23693 13.4522 9.45057 13.6658C9.6642 13.8795 9.95385 13.9996 10.256 14H12.8607C13.1628 13.9996 13.4524 13.8795 13.6661 13.6658C13.8797 13.4522 13.9999 13.1626 14.0002 12.8605V10.2558C13.9999 9.95369 13.8797 9.66405 13.6661 9.45042C13.4524 9.23679 13.1628 9.11662 12.8607 9.11628H10.256C9.95385 9.11662 9.6642 9.23679 9.45057 9.45042C9.23693 9.66405 9.11676 9.95369 9.11642 10.2558V11.0698H7.65152C7.60834 11.0698 7.56693 11.0526 7.5364 11.0221C7.50587 10.9915 7.48872 10.9501 7.48872 10.907V3.09302C7.48872 3.04985 7.50587 3.00844 7.5364 2.97791C7.56693 2.94738 7.60834 2.93023 7.65152 2.93023H9.11642V3.74418C9.11676 4.0463 9.23693 4.33594 9.45057 4.54957C9.6642 4.7632 9.95385 4.88337 10.256 4.88371Z" fill="white"/>
</svg>
