<svg width="16" height="16" viewBox="0 0 16 16" fill="none" xmlns="http://www.w3.org/2000/svg">
<g id="protect">
<path id="Vector" d="M15.0532 3.12732C15.0256 2.8218 14.8292 2.55852 14.547 2.45073L8.35975 0.0879036C8.28922 0.0519735 8.21396 0.0278066 8.13572 0.0145228C7.96541 -0.0206071 7.78675 0.00908134 7.63019 0.0918247L1.45303 2.45073C1.17073 2.55852 0.974308 2.8218 0.946786 3.12732C0.938373 3.22031 0.207322 12.4238 7.55746 15.8687C7.56516 15.8741 7.57358 15.8796 7.58199 15.8843C7.70623 15.9617 7.8473 16 7.98852 16C8.00999 16 8.03146 15.9992 8.053 15.9977C8.18031 15.9891 8.30691 15.9493 8.41967 15.8796C15.7943 12.4433 15.0617 3.22111 15.0532 3.12732ZM11.7136 6.15034L8.34866 9.73103C8.20241 9.88651 8.00079 9.97566 7.78927 9.97798C7.7862 9.97798 7.78353 9.97798 7.78046 9.97798C7.57201 9.97798 7.37196 9.89355 7.22453 9.74351L5.65187 8.14306C5.34473 7.83049 5.34473 7.32411 5.65187 7.01146C5.95901 6.69881 6.4566 6.69889 6.76382 7.01146L7.76788 8.03359L10.5773 5.0437C10.8771 4.72409 11.3763 4.71313 11.6888 5.01874C12.0027 5.32434 12.0138 5.83073 11.7136 6.15034Z" fill="white"/>
</g>
</svg>
