<svg width="22" height="22" viewBox="0 0 22 22" fill="none" xmlns="http://www.w3.org/2000/svg">
<g id="Group 6">
<path id="Vector" d="M10.9252 0.600098C5.64482 0.600098 5.97452 2.90194 5.97452 2.90194L5.98038 5.28672H11.0193V6.00269H3.97899C3.97899 6.00269 0.600098 5.61748 0.600098 10.9732C0.600098 16.329 3.54928 16.1391 3.54928 16.1391H5.30934V13.6537C5.30934 13.6537 5.21446 10.6891 8.21145 10.6891H13.2092C13.2092 10.6891 16.0171 10.7347 16.0171 7.96124V3.37541C16.0171 3.37541 16.4435 0.600098 10.9252 0.600098ZM8.1467 2.20381C8.26578 2.20371 8.3837 2.2272 8.49373 2.27296C8.60376 2.31871 8.70374 2.38583 8.78793 2.47047C8.87213 2.55511 8.9389 2.6556 8.98442 2.76621C9.02994 2.87681 9.05331 2.99536 9.0532 3.11505C9.05331 3.23475 9.02994 3.35329 8.98442 3.4639C8.9389 3.5745 8.87213 3.675 8.78793 3.75964C8.70374 3.84427 8.60376 3.91139 8.49373 3.95715C8.3837 4.0029 8.26578 4.0264 8.1467 4.02629C8.02763 4.0264 7.9097 4.0029 7.79967 3.95715C7.68964 3.91139 7.58967 3.84427 7.50547 3.75964C7.42127 3.675 7.3545 3.5745 7.30898 3.4639C7.26347 3.35329 7.24009 3.23475 7.2402 3.11505C7.24009 2.99536 7.26347 2.87681 7.30898 2.76621C7.3545 2.6556 7.42127 2.55511 7.50547 2.47047C7.58967 2.38583 7.68964 2.31871 7.79967 2.27296C7.9097 2.2272 8.02763 2.20371 8.1467 2.20381Z" fill="white"/>
<path id="Vector_2" d="M11.0747 21.4001C16.3551 21.4001 16.0254 19.0983 16.0254 19.0983L16.0195 16.7136H10.9805V15.9976H18.0208C18.0208 15.9976 21.3997 16.3828 21.3997 11.027C21.3997 5.67124 18.4505 5.86118 18.4505 5.86118H16.6904V8.34642C16.6904 8.34642 16.7853 11.311 13.7883 11.311H8.79061C8.79061 11.311 5.98274 11.2654 5.98274 14.039V18.6249C5.98274 18.6249 5.55636 21.4001 11.0746 21.4001H11.0747ZM13.8532 19.7966C13.7341 19.7967 13.6162 19.7732 13.5061 19.7275C13.3961 19.6817 13.2961 19.6146 13.2119 19.5299C13.1277 19.4453 13.061 19.3448 13.0155 19.2342C12.9699 19.1236 12.9466 19.0051 12.9467 18.8854C12.9466 18.7657 12.9699 18.6471 13.0154 18.5365C13.0609 18.4259 13.1277 18.3254 13.2119 18.2407C13.2961 18.1561 13.3961 18.089 13.5061 18.0432C13.6162 17.9974 13.7341 17.9739 13.8532 17.974C13.9722 17.9739 14.0902 17.9974 14.2002 18.0432C14.3102 18.0889 14.4102 18.1561 14.4944 18.2407C14.5786 18.3253 14.6454 18.4258 14.6909 18.5364C14.7364 18.647 14.7598 18.7656 14.7597 18.8853C14.7598 19.005 14.7364 19.1235 14.6909 19.2341C14.6454 19.3447 14.5786 19.4452 14.4944 19.5299C14.4102 19.6145 14.3102 19.6816 14.2002 19.7274C14.0902 19.7731 13.9722 19.7967 13.8532 19.7966Z" fill="#D6D6D6"/>
</g>
</svg>
