<svg width="25" height="22" viewBox="0 0 25 22" fill="none" xmlns="http://www.w3.org/2000/svg">
<g id="Group 3">
<path id="Vector" d="M24.1998 11.0024C24.1998 9.42755 22.2586 7.93503 19.2823 7.00948C19.9691 3.92753 19.6639 1.47554 18.3188 0.690519C18.0088 0.506377 17.6463 0.419152 17.2504 0.419152V1.49977C17.4698 1.49977 17.6463 1.54338 17.7941 1.62576C18.4428 2.00374 18.7242 3.44295 18.5048 5.29406C18.4524 5.74956 18.3665 6.2293 18.2616 6.71873C17.3267 6.48613 16.306 6.30683 15.2328 6.19054C14.5889 5.29406 13.9212 4.47996 13.2486 3.76762C14.8036 2.29933 16.2631 1.49493 17.2552 1.49493V0.414307C15.9435 0.414307 14.2264 1.36409 12.4903 3.01167C10.7541 1.37378 9.03703 0.43369 7.72537 0.43369V1.51431C8.71269 1.51431 10.177 2.31387 11.7319 3.77247C11.0641 4.4848 10.3964 5.29406 9.76202 6.19054C8.68407 6.30683 7.66336 6.48613 6.72851 6.72358C6.6188 6.23899 6.53772 5.76895 6.48048 5.31829C6.25631 3.46718 6.53295 2.02797 7.17685 1.64515C7.31994 1.55792 7.50596 1.51916 7.72537 1.51916V0.438536C7.32471 0.438536 6.96222 0.525761 6.64742 0.709902C5.30714 1.49493 5.00665 3.94207 5.69826 7.01433C2.73152 7.94473 0.799805 9.43239 0.799805 11.0024C0.799805 12.5773 2.74106 14.0699 5.71733 14.9954C5.0305 18.0774 5.33576 20.5293 6.68081 21.3144C6.99084 21.4985 7.35333 21.5857 7.75398 21.5857C9.06564 21.5857 10.7827 20.636 12.5189 18.9884C14.255 20.6263 15.9721 21.5664 17.2838 21.5664C17.6844 21.5664 18.0469 21.4791 18.3617 21.295C19.702 20.51 20.0025 18.0628 19.3109 14.9906C22.2681 14.065 24.1998 12.5725 24.1998 11.0024ZM17.9897 7.77028C17.8132 8.39539 17.5938 9.03988 17.3458 9.68438C17.1502 9.29671 16.9451 8.90905 16.721 8.52138C16.5016 8.13371 16.2678 7.75574 16.0341 7.38745C16.7114 7.48922 17.3649 7.61521 17.9897 7.77028ZM15.8052 12.9311C15.4332 13.5853 15.0516 14.2055 14.6557 14.7822C13.945 14.8452 13.2248 14.8791 12.4998 14.8791C11.7796 14.8791 11.0594 14.8452 10.3535 14.787C9.95757 14.2104 9.57123 13.595 9.19919 12.9456C8.8367 12.3108 8.50759 11.6663 8.2071 11.017C8.50282 10.3676 8.8367 9.7183 9.19442 9.0835C9.56646 8.42931 9.94803 7.80904 10.3439 7.23239C11.0546 7.16939 11.7748 7.13547 12.4998 7.13547C13.22 7.13547 13.9402 7.16939 14.6462 7.22754C15.042 7.8042 15.4284 8.41962 15.8004 9.06896C16.1629 9.70376 16.492 10.3483 16.7925 10.9976C16.492 11.6469 16.1629 12.2963 15.8052 12.9311ZM17.3458 12.3011C17.6034 12.9505 17.8228 13.5998 18.004 14.2298C17.3792 14.3848 16.721 14.5157 16.0389 14.6174C16.2726 14.2443 16.5063 13.8615 16.7257 13.469C16.9451 13.0813 17.1502 12.6888 17.3458 12.3011ZM12.5093 17.4716C12.0658 17.0064 11.6222 16.4879 11.1834 15.921C11.6126 15.9403 12.0515 15.9549 12.495 15.9549C12.9434 15.9549 13.387 15.9452 13.821 15.921C13.3917 16.4879 12.9482 17.0064 12.5093 17.4716ZM8.96071 14.6174C8.28342 14.5157 7.62997 14.3897 7.00515 14.2346C7.18162 13.6095 7.40103 12.965 7.64905 12.3205C7.84461 12.7082 8.0497 13.0958 8.27388 13.4835C8.49805 13.8712 8.727 14.2491 8.96071 14.6174ZM12.4855 4.53326C12.9291 4.99846 13.3727 5.51696 13.8115 6.08393C13.3822 6.06454 12.9434 6.05001 12.4998 6.05001C12.0515 6.05001 11.6079 6.0597 11.1738 6.08393C11.6031 5.51696 12.0467 4.99846 12.4855 4.53326ZM8.95594 7.38745C8.72223 7.76058 8.48851 8.1434 8.26911 8.53592C8.0497 8.92358 7.84461 9.31125 7.64905 9.69892C7.39149 9.04957 7.17208 8.40023 6.99084 7.77028C7.61566 7.62006 8.27388 7.48922 8.95594 7.38745ZM4.63939 13.4544C2.95093 12.7227 1.85867 11.7632 1.85867 11.0024C1.85867 10.2416 2.95093 9.27733 4.63939 8.55045C5.04958 8.37116 5.49793 8.21125 5.96059 8.06103C6.23246 9.01081 6.59018 9.99936 7.03376 11.0121C6.59495 12.0201 6.242 13.0038 5.9749 13.9487C5.5027 13.7985 5.05435 13.6337 4.63939 13.4544ZM7.20547 20.3791C6.5568 20.0011 6.27539 18.5619 6.49479 16.7108C6.54726 16.2553 6.63311 15.7756 6.73804 15.2862C7.6729 15.5188 8.69361 15.6981 9.76679 15.8144C10.4107 16.7108 11.0784 17.5249 11.751 18.2373C10.1961 19.7056 8.73654 20.51 7.74444 20.51C7.52981 20.5051 7.34856 20.4615 7.20547 20.3791ZM18.5191 16.6866C18.7433 18.5377 18.4667 19.9769 17.8228 20.3597C17.6797 20.447 17.4936 20.4857 17.2742 20.4857C16.2869 20.4857 14.8226 19.6862 13.2677 18.2276C13.9355 17.5152 14.6032 16.706 15.2376 15.8095C16.3155 15.6932 17.3363 15.5139 18.2711 15.2765C18.3808 15.7659 18.4667 16.2359 18.5191 16.6866ZM20.3555 13.4544C19.9453 13.6337 19.4969 13.7936 19.0343 13.9439C18.7624 12.9941 18.4047 12.0055 17.9611 10.9928C18.3999 9.98482 18.7528 9.00112 19.0199 8.05618C19.4921 8.2064 19.9405 8.37116 20.3602 8.55045C22.0487 9.28217 23.1409 10.2416 23.1409 11.0024C23.1362 11.7632 22.0439 12.7276 20.3555 13.4544Z" fill="white"/>
<path id="Vector_2" d="M12.4947 13.2172C13.6985 13.2172 14.6744 12.2257 14.6744 11.0026C14.6744 9.77957 13.6985 8.78809 12.4947 8.78809C11.2908 8.78809 10.3149 9.77957 10.3149 11.0026C10.3149 12.2257 11.2908 13.2172 12.4947 13.2172Z" fill="white"/>
</g>
</svg>
