<svg width="22" height="22" viewBox="0 0 22 22" fill="none" xmlns="http://www.w3.org/2000/svg">
<g id="Group 7">
<path id="Vector" d="M0.600098 2.24031C0.600098 1.15485 1.45337 0.274902 2.50594 0.274902H9.96079C11.0133 0.274902 11.8667 1.15485 11.8667 2.24032V3.76095C11.8667 4.30368 11.44 4.74365 10.9138 4.74365H1.55301C1.02673 4.74365 0.600098 4.30368 0.600098 3.76095V2.24031Z" fill="white"/>
<path id="Vector_2" d="M0.600098 8.40751C0.600098 7.86478 1.02673 7.4248 1.55301 7.4248H19.494C20.5466 7.4248 21.3999 8.30475 21.3999 9.39025V14.4859C21.3999 15.0286 20.9732 15.4686 20.447 15.4686H2.50594C1.45337 15.4686 0.600098 14.5886 0.600098 13.5031V8.40751Z" fill="white"/>
<path id="Vector_3" d="M10.1338 19.1326C10.1338 18.5899 10.5604 18.1499 11.0867 18.1499H20.4475C20.9737 18.1499 21.4003 18.5899 21.4003 19.1326V19.7595C21.4003 20.8449 20.547 21.7249 19.4945 21.7249H12.0397C10.9871 21.7249 10.1338 20.8449 10.1338 19.7595V19.1326Z" fill="white"/>
</g>
</svg>
