<svg width="14" height="14" viewBox="0 0 14 14" fill="none" xmlns="http://www.w3.org/2000/svg">
<g id="star-review ">
<path id="Vector" d="M13.9635 5.41254C13.8718 5.13786 13.6204 4.94277 13.3229 4.91679L9.28214 4.56127L7.68431 0.937487C7.56649 0.671911 7.29817 0.5 7.00006 0.5C6.70194 0.5 6.43362 0.671911 6.31581 0.938108L4.71797 4.56127L0.676558 4.91679C0.379615 4.94339 0.128816 5.13786 0.0366355 5.41254C-0.0555451 5.68723 0.0295857 5.98851 0.254216 6.17843L3.30856 8.77396L2.40791 12.6182C2.342 12.9008 2.45523 13.193 2.69727 13.3626C2.82737 13.4536 2.97958 13.5 3.13307 13.5C3.26541 13.5 3.39668 13.4654 3.5145 13.3971L7.00006 11.3786L10.4843 13.3971C10.7393 13.5457 11.0607 13.5322 11.3022 13.3626C11.5444 13.1925 11.6575 12.9002 11.5916 12.6182L10.6909 8.77396L13.7453 6.17895C13.9699 5.98851 14.0557 5.68775 13.9635 5.41254Z" fill="#F8CE38"/>
</g>
</svg>
