<svg width="20px" height="20px" viewBox="0 0 20 20" fill="none" xmlns="http://www.w3.org/2000/svg" transform="rotate(0) scale(1, 1)">
<g id="footer-linkedin">
<path id="Vector" d="M20.0002 19.9996V12.6746C20.0002 9.07459 19.2252 6.32458 15.0252 6.32458C13.0002 6.32458 11.6502 7.42459 11.1002 8.47459H11.0502V6.64958H7.0752V19.9996H11.2252V13.3746C11.2252 11.6246 11.5502 9.94958 13.7002 9.94958C15.8252 9.94958 15.8502 11.9246 15.8502 13.4746V19.9746H20.0002V19.9996Z" fill="#ffffff"/>
<path id="Vector_2" d="M0.324951 6.65039H4.47495V20.0004H0.324951V6.65039Z" fill="#ffffff"/>
<path id="Vector_3" d="M2.4 0C1.075 0 0 1.075 0 2.4C0 3.725 1.075 4.825 2.4 4.825C3.725 4.825 4.8 3.725 4.8 2.4C4.8 1.075 3.725 0 2.4 0Z" fill="#ffffff"/>
</g>
</svg>